<?xml version="1.0" encoding="utf-8"?>
<!-- Generator: Adobe Illustrator 27.5.0, SVG Export Plug-In . SVG Version: 6.00 Build 0)  -->
<svg version="1.1" xmlns="http://www.w3.org/2000/svg" xmlns:xlink="http://www.w3.org/1999/xlink" x="0px" y="0px"
	 viewBox="0 0 500 500" style="enable-background:new 0 0 500 500;" xml:space="preserve">
<g id="Background_Complete">
	<g>
		<rect y="382.398" style="fill:#EBEBEB;" width="500" height="0.25"/>
		<rect x="416.779" y="398.494" style="fill:#EBEBEB;" width="33.122" height="0.25"/>
		<rect x="322.527" y="401.208" style="fill:#EBEBEB;" width="8.693" height="0.25"/>
		<rect x="396.586" y="389.208" style="fill:#EBEBEB;" width="19.192" height="0.25"/>
		<rect x="52.459" y="390.888" style="fill:#EBEBEB;" width="43.193" height="0.25"/>
		<rect x="104.556" y="390.888" style="fill:#EBEBEB;" width="6.333" height="0.25"/>
		<rect x="131.471" y="395.111" style="fill:#EBEBEB;" width="93.676" height="0.25"/>
		<path style="fill:#EBEBEB;" d="M237.014,337.8H43.915c-3.147,0-5.708-2.561-5.708-5.708V60.66c0-3.147,2.561-5.708,5.708-5.708
			h193.099c3.146,0,5.707,2.561,5.707,5.708v271.432C242.721,335.239,240.16,337.8,237.014,337.8z M43.915,55.203
			c-3.01,0-5.458,2.448-5.458,5.458v271.432c0,3.01,2.448,5.458,5.458,5.458h193.099c3.009,0,5.457-2.448,5.457-5.458V60.66
			c0-3.009-2.448-5.458-5.457-5.458H43.915z"/>
		<path style="fill:#EBEBEB;" d="M453.31,337.8H260.212c-3.147,0-5.707-2.561-5.707-5.708V60.66c0-3.147,2.561-5.708,5.707-5.708
			H453.31c3.148,0,5.708,2.561,5.708,5.708v271.432C459.019,335.239,456.458,337.8,453.31,337.8z M260.212,55.203
			c-3.009,0-5.457,2.448-5.457,5.458v271.432c0,3.01,2.448,5.458,5.457,5.458H453.31c3.01,0,5.458-2.448,5.458-5.458V60.66
			c0-3.009-2.448-5.458-5.458-5.458H260.212z"/>
	</g>
	<g>
		<g>
			<g>
				
					<rect x="277.911" y="83.478" transform="matrix(-1 -1.224647e-16 1.224647e-16 -1 720.6472 314.5507)" style="fill:#E6E6E6;" width="164.825" height="147.596"/>
				
					<rect x="270.971" y="83.478" transform="matrix(-1 -1.224647e-16 1.224647e-16 -1 710.4641 314.5507)" style="fill:#F0F0F0;" width="168.522" height="147.596"/>
				
					<rect x="277.911" y="231.073" transform="matrix(-1 -1.224647e-16 1.224647e-16 -1 720.6472 467.1418)" style="fill:#E6E6E6;" width="164.825" height="4.996"/>
				
					<rect x="259.409" y="231.073" transform="matrix(-1 -1.224647e-16 1.224647e-16 -1 687.3401 467.1418)" style="fill:#F0F0F0;" width="168.522" height="4.996"/>
				
					<rect x="291.15" y="82.731" transform="matrix(-1.836970e-16 1 -1 -1.836970e-16 512.5075 -197.9567)" style="fill:#FAFAFA;" width="128.163" height="149.09"/>
				<polygon style="fill:#FFFFFF;" points="399.816,221.357 342.789,93.194 284.43,93.194 341.457,221.357 				"/>
				<path style="fill:#F0F0F0;" d="M425.279,199.94c0.384,0,0.694-0.311,0.694-0.694V99.515c0-0.383-0.31-0.694-0.694-0.694
					s-0.694,0.311-0.694,0.694v99.731C424.585,199.629,424.895,199.94,425.279,199.94z"/>
				<polygon style="fill:#FFFFFF;" points="319.517,221.357 262.49,93.194 242.3,93.194 299.327,221.357 				"/>
				
					<rect x="217.223" y="156.658" transform="matrix(-1.836970e-16 1 -1 -1.836970e-16 438.5796 -124.0288)" style="fill:#E6E6E6;" width="128.163" height="1.234"/>
				<g style="opacity:0.5;">
					<polygon style="fill:#E6E6E6;" points="268.672,106.539 433.496,106.539 434.391,96.969 269.566,96.969 					"/>
					<polygon style="fill:#E6E6E6;" points="268.672,122.341 433.496,122.341 434.391,112.771 269.566,112.771 					"/>
					<polygon style="fill:#E6E6E6;" points="268.672,138.142 433.496,138.142 434.391,128.572 269.566,128.572 					"/>
					<polygon style="fill:#E6E6E6;" points="268.672,153.944 433.496,153.944 434.391,144.374 269.566,144.374 					"/>
					<polygon style="fill:#E6E6E6;" points="268.672,169.746 433.496,169.746 434.391,160.176 269.566,160.176 					"/>
					<polygon style="fill:#E6E6E6;" points="268.672,185.547 433.496,185.547 434.391,175.977 269.566,175.977 					"/>
				</g>
			</g>
		</g>
		<g>
			
				<rect x="77.865" y="83.478" transform="matrix(-1 -1.224647e-16 1.224647e-16 -1 287.0678 465.876)" style="fill:#F0F0F0;" width="131.337" height="298.921"/>
			
				<rect x="77.865" y="83.478" transform="matrix(-1 -1.224647e-16 1.224647e-16 -1 284.4831 465.876)" style="fill:#F5F5F5;" width="128.753" height="298.921"/>
			
				<rect x="-3.827" y="178.736" transform="matrix(-1.836970e-16 1 -1 -1.836970e-16 378.5711 94.0881)" style="fill:#EBEBEB;" width="292.137" height="115.187"/>
			<path style="fill:#FFFFFF;" d="M115.914,224.027c-6.53-1.8-13.06,4.001-19.59,2.202c-1.382-0.367-2.514-2.234-2.514-3.615l0,0
				c0.001-1.385,1.132-1.78,2.514-1.413c6.53,1.8,13.06-4.001,19.59-2.202c1.381,0.367,2.514,2.235,2.514,3.615l0,0
				C118.429,223.998,117.294,224.393,115.914,224.027z"/>
			
				<rect x="-60.541" y="235.45" transform="matrix(-1.836970e-16 1 -1 -1.836970e-16 321.857 150.8022)" style="fill:#E0E0E0;" width="292.137" height="1.759"/>
		</g>
		<g>
			<g>
				
					<rect x="415.496" y="273.644" transform="matrix(-1 -1.224647e-16 1.224647e-16 -1 854.5476 649.447)" style="fill:#F0F0F0;" width="23.556" height="102.16"/>
				
					<rect x="318.362" y="375.803" transform="matrix(-1 -1.224647e-16 1.224647e-16 -1 752.8909 758.0796)" style="fill:#F0F0F0;" width="116.166" height="6.473"/>
				<rect x="313.839" y="273.644" style="fill:#F5F5F5;" width="101.657" height="102.16"/>
				<rect x="323.1" y="286.218" style="fill:#F0F0F0;" width="83.134" height="33.505"/>
				<rect x="323.1" y="329.724" style="fill:#F0F0F0;" width="83.134" height="33.505"/>
				<path style="fill:#F5F5F5;" d="M355.335,289.043H374c1.264,0,2.297-1.034,2.297-2.297v0c0-1.263-1.034-2.297-2.297-2.297
					h-18.666c-1.264,0-2.297,1.034-2.297,2.297v0C353.037,288.009,354.071,289.043,355.335,289.043z"/>
				<path style="fill:#F5F5F5;" d="M355.335,332.548H374c1.264,0,2.297-1.034,2.297-2.297l0,0c0-1.264-1.034-2.297-2.297-2.297
					h-18.666c-1.264,0-2.297,1.034-2.297,2.297l0,0C353.037,331.515,354.071,332.548,355.335,332.548z"/>
			</g>
			<path style="fill:#EBEBEB;" d="M393.585,271.633L393.585,271.633c-0.959,0-1.744-0.785-1.744-1.744v-53.084
				c0-0.959,0.785-1.744,1.744-1.744l0,0c0.959,0,1.744,0.785,1.744,1.744v53.084C395.329,270.849,394.544,271.633,393.585,271.633z
				"/>
			<rect x="377.242" y="269.574" style="fill:#F0F0F0;" width="32.686" height="4.118"/>
			<path style="fill:#E0E0E0;" d="M402.641,246.85L402.641,246.85c-0.479,0-0.872-0.392-0.872-0.872v-26.542
				c0-0.48,0.392-0.872,0.872-0.872l0,0c0.479,0,0.872,0.392,0.872,0.872v26.542C403.513,246.457,403.121,246.85,402.641,246.85z"/>
			<g>
				<path style="fill:#E6E6E6;" d="M368.172,228.617c0,0,0.646-19.515,25.414-19.515c24.768,0,25.414,19.515,25.414,19.515H368.172z
					"/>
			</g>
		</g>
	</g>
</g>
<g id="Background_Simple" style="display:none;">
	<g style="display:inline;">
		<path style="fill:#407BFF;" d="M313.438,187.144c-37.255-30.897-21.889-75.04-58.902-105.567
			c-33.036-27.247-75.215-27.328-97.714,8.151c-19.971,31.493,0.983,69.62-13.094,103.929
			c-14.923,36.369-34.342,72.142-10.187,115.248c47.429,84.642,162.208,37.315,214.392-4.12
			c20.032-15.906,66.821-55.069,49.435-84.47C379.867,190.723,336.291,206.096,313.438,187.144z"/>
		<path style="opacity:0.9;fill:#FFFFFF;" d="M313.438,187.144c-37.255-30.897-21.889-75.04-58.902-105.567
			c-33.036-27.247-75.215-27.328-97.714,8.151c-19.971,31.493,0.983,69.62-13.094,103.929
			c-14.923,36.369-34.342,72.142-10.187,115.248c47.429,84.642,162.208,37.315,214.392-4.12
			c20.032-15.906,66.821-55.069,49.435-84.47C379.867,190.723,336.291,206.096,313.438,187.144z"/>
	</g>
</g>
<g id="Shadow_1_">
	<ellipse id="_x3C_Path_x3E__300_" style="fill:#F5F5F5;" cx="250" cy="416.238" rx="193.889" ry="11.323"/>
</g>
<g id="Character_1_">
	<g>
		<path style="fill:#263238;" d="M233.662,144.056c0.052-2.111,2.006-4.889,9.862-5.389c7.856-0.5,10.776-0.136,14.023,6
			c3.5,6.614,7.5,14,4.889,20.778c-2.611,6.778-10.834,10.752-16.722,14.333c-5.888,3.581-14.667,15.611-14.667,15.611
			S214.666,150,233.662,144.056z"/>
		<path style="fill:#FF8B7B;" d="M237.251,234.626c0,0,11.913,61.146,16.138,85.999c4.394,25.85,8.095,81.471,8.095,81.471h6.616
			c0,0,8.429-47.942-0.01-83.646c0.567-28.459-4.964-87.652-4.964-87.652L237.251,234.626z"/>
		<path style="fill:#FF8B7B;" d="M245.928,233.342c0,0,26.126,63.938,35.223,87.448c12.754,17.098,44.829,53.374,46.585,54.097
			l2.325-5.227c0,0-19.601-38.328-35.403-57.272c-4.202-28.153-24.204-82.676-24.204-82.676L245.928,233.342z"/>
		<path style="fill:#FF8B7B;" d="M233.632,194.857c-1.883,2.201-3.815,4.307-5.742,6.442c-1.939,2.12-3.92,4.2-5.907,6.282
			c-1.983,2.087-3.999,4.144-6.081,6.155c-2.074,2.02-4.169,4.025-6.363,5.994l0.33-0.352c-0.509,0.593-1.073,1.043-1.62,1.39
			c-0.535,0.322-1.074,0.582-1.559,0.75c-0.992,0.364-1.872,0.521-2.703,0.615c-1.657,0.182-3.13,0.126-4.563,0.015
			c-2.852-0.235-5.506-0.781-8.12-1.395c-2.604-0.649-5.147-1.396-7.661-2.202c-2.511-0.845-4.968-1.718-7.434-2.755
			c-1.069-0.45-1.572-1.681-1.122-2.75c0.396-0.943,1.401-1.445,2.366-1.242l0.04,0.009c2.47,0.517,4.997,1.047,7.498,1.492
			c2.499,0.479,5.002,0.895,7.485,1.202c2.472,0.331,4.949,0.558,7.27,0.571c1.151,0.004,2.278-0.064,3.185-0.247
			c0.449-0.09,0.841-0.208,1.057-0.314c0.125-0.049,0.159-0.098,0.178-0.108c-0.008-0.01-0.074,0.02-0.161,0.121l0.331-0.352
			c1.964-1.946,3.899-3.988,5.816-6.051l5.736-6.247l11.408-12.616c1.565-1.731,4.237-1.865,5.968-0.3
			c1.701,1.538,1.86,4.144,0.381,5.877L233.632,194.857z"/>
		<path style="fill:#FF8B7B;" d="M179.134,212.365l-4.176-7.227l-2.854,7.905c0,0,3.504,3.986,6.85,3.204L179.134,212.365z"/>
		<path style="fill:#FF8B7B;" d="M169.762,205.353l-1.015,3.372c-0.232,0.771,0.024,1.605,0.648,2.113l2.71,2.207l2.854-7.905
			l-2.534-1.049C171.337,203.64,170.1,204.227,169.762,205.353z"/>
		<path style="fill:#407BFF;" d="M233.714,184.767c-5.879-0.96-8.487,3.105-11.291,6.195c0.666,5.458,10.299,16.662,10.299,16.662
			S244.397,186.511,233.714,184.767z"/>
		<path style="fill:#407BFF;" d="M225.893,191.474c0.747,5.947,3.587,22.644,11.543,47.643l34.709-5.135
			c-2.396-12.585-5.708-24.473-4.178-49.524c0.178-2.918-2.146-5.383-5.07-5.371c-2.349,0.009-5.248,0.104-8.266,0.403
			c-5.627,0.557-10.232,1.056-15.077,2.231c-3.203,0.777-6.591,1.815-9.172,2.657C227.375,185.36,225.499,188.337,225.893,191.474z"
			/>
		<path style="fill:#FFFFFF;" d="M239.553,181.722l15.077-2.231c0,0-0.686,5.787-10.186,13.398
			C237.222,186.19,239.553,181.722,239.553,181.722z"/>
		<path style="fill:#FF8B7B;" d="M250.625,162.735c-0.233,4.992,0.133,14.021,4.006,16.756c0,0-3.016,5.522-9.731,9.674
			c-5.268-2.296-5.346-7.443-5.346-7.443c5.219-2.092,4.485-6.085,2.985-9.715L250.625,162.735z"/>
		<path style="opacity:0.2;" d="M247.329,166.518l-4.787,5.484c0.358,0.859,0.668,1.737,0.861,2.607
			c2.023-0.604,4.526-3.293,4.425-5.489C247.778,168.025,247.579,166.994,247.329,166.518z"/>
		<path style="fill:#FF8B7B;" d="M254.425,153.079c-0.735,8.169-0.872,11.643-5.125,15.726c-6.397,6.141-16.27,3.452-17.99-4.773
			c-1.548-7.403-0.086-19.519,8.017-22.547C247.311,138.501,255.161,144.91,254.425,153.079z"/>
		<path style="fill:#263238;" d="M248.158,146.722c-0.722,4.889,2.167,10.874,4.667,10.937c2.5,0.063,4.389-9.381,4.389-9.381
			L248.158,146.722z"/>
		<path style="fill:#263238;" d="M234.27,144.222c5.333,3.778,21.167,9.445,21.5,4.556c0.333-4.889-6.278-8.833-11.167-8.833
			S235.77,141.889,234.27,144.222z"/>
		<g>
			<path style="opacity:0.2;" d="M252.096,313.253l15.951-6.292c-0.078-3.81-0.212-7.854-0.395-12.032l-17.707,6.451
				C250.734,305.62,251.46,309.637,252.096,313.253z"/>
			<path style="opacity:0.2;" d="M288.983,287.153l-18.503,6.74c1.455,3.616,2.865,7.138,4.186,10.46l17.021-6.713
				C290.873,294.253,289.957,290.729,288.983,287.153z"/>
		</g>
		<path style="fill:#263238;" d="M242.454,155.23c-0.019,0.666-0.388,1.197-0.823,1.184c-0.436-0.012-0.773-0.563-0.754-1.229
			c0.019-0.666,0.387-1.197,0.823-1.184C242.136,154.014,242.473,154.564,242.454,155.23z"/>
		<path style="fill:#263238;" d="M234.923,155.016c-0.019,0.666-0.387,1.197-0.823,1.184c-0.436-0.012-0.773-0.563-0.754-1.229
			c0.019-0.666,0.387-1.197,0.823-1.184C234.604,153.8,234.942,154.35,234.923,155.016z"/>
		<path style="fill:#263238;" d="M234.36,153.83l-1.587-0.507C232.772,153.323,233.558,154.596,234.36,153.83z"/>
		<path style="fill:#FF5652;" d="M236.881,156.218c0,0-1.212,2.837-2.496,4.185c0.856,0.846,2.363,0.513,2.363,0.513
			L236.881,156.218z"/>
		<path style="fill:#263238;" d="M239.109,163.403c-0.347,0.051-0.72,0.076-1.12,0.064c-0.108-0.003-0.193-0.093-0.19-0.202
			c0.003-0.107,0.09-0.192,0.202-0.19c2.922,0.085,4.348-1.92,4.362-1.941c0.061-0.089,0.184-0.111,0.272-0.05
			c0.089,0.061,0.111,0.184,0.05,0.272C242.63,161.436,241.483,163.052,239.109,163.403z"/>
		<path style="fill:#FF8B7B;" d="M256.194,157.414c-0.404,1.652-1.533,2.963-2.739,3.669c-1.814,1.061-3.253-0.433-3.195-2.423
			c0.053-1.792,1.06-4.503,3.096-4.753C255.361,153.66,256.656,155.525,256.194,157.414z"/>
		<path style="fill:#263238;" d="M245.248,151.794c-0.103,0.006-0.209-0.029-0.291-0.105c-1.274-1.194-2.677-0.867-2.693-0.863
			c-0.208,0.049-0.421-0.077-0.473-0.288c-0.051-0.21,0.077-0.422,0.287-0.473c0.073-0.018,1.833-0.429,3.415,1.053
			c0.158,0.148,0.166,0.395,0.018,0.553C245.439,151.747,245.344,151.788,245.248,151.794z"/>
		<path style="fill:#263238;" d="M232.95,151.162c-0.095-0.02-0.183-0.075-0.243-0.161c-0.123-0.178-0.078-0.422,0.1-0.545
			c1.783-1.229,3.463-0.563,3.534-0.533c0.2,0.082,0.296,0.311,0.214,0.511c-0.082,0.2-0.31,0.295-0.51,0.214
			c-0.065-0.027-1.375-0.525-2.793,0.453C233.16,151.164,233.051,151.182,232.95,151.162z"/>
		<path style="fill:#263238;" d="M241.891,154.044l-1.587-0.507C240.304,153.537,241.09,154.81,241.891,154.044z"/>
		<path style="fill:#263238;" d="M237.436,239.117l11.617,68.667l43.469-12.896c-3.553-36.285-12.574-54.263-20.377-60.907
			L237.436,239.117z"/>
		<polygon style="opacity:0.2;" points="255.05,277.702 263.741,263.415 262.255,253.369 		"/>
		<path style="fill:#FF8B7B;" d="M267.531,182.538c0.737,0.659,1.648,1.42,2.492,2.125c0.864,0.715,1.747,1.413,2.642,2.092
			c1.792,1.355,3.597,2.688,5.467,3.886c3.727,2.385,7.638,4.471,11.547,5.549c0.245,0.078,0.485,0.12,0.729,0.182l0.364,0.088
			c0.109,0.026-0.008-0.001-0.038,0.001l-0.141,0c-0.407,0.024-0.554,0.178-0.443,0.132c0.236-0.082,0.911-0.707,1.45-1.46
			c1.129-1.547,2.197-3.53,3.143-5.553c0.975-2.03,1.876-4.151,2.711-6.308c0.856-2.144,1.673-4.355,2.457-6.511l0.02-0.055
			c0.397-1.09,1.603-1.653,2.693-1.256c0.949,0.346,1.497,1.304,1.362,2.265c-0.675,4.842-1.735,9.512-3.258,14.251
			c-0.817,2.358-1.694,4.715-3.154,7.132c-0.771,1.202-1.581,2.484-3.309,3.739c-0.87,0.598-2.162,1.224-3.759,1.226
			c-0.194,0.006-0.388-0.009-0.582-0.027c-0.177-0.016-0.443-0.05-0.477-0.059l-0.506-0.085c-0.335-0.061-0.68-0.106-1.006-0.184
			c-2.662-0.537-5.144-1.413-7.507-2.438c-2.361-1.026-4.591-2.236-6.733-3.542c-2.138-1.311-4.212-2.691-6.186-4.196
			c-0.987-0.752-1.958-1.523-2.914-2.317c-0.975-0.804-1.86-1.581-2.859-2.529c-1.693-1.606-1.763-4.28-0.157-5.972
			c1.576-1.66,4.179-1.759,5.875-0.246L267.531,182.538z"/>
		<path style="fill:#407BFF;" d="M262.52,179.088c5.947-0.352,8.278,2.773,10.75,6.135c-1.222,5.361-7.722,14.528-7.722,14.528
			S251.714,179.727,262.52,179.088z"/>
		<path style="fill:#FF8B7B;" d="M299.641,177.245l1.503-8.801l5.423,6.421c0,0-1.901,4.955-5.309,5.385L299.641,177.245z"/>
		<path style="fill:#FF8B7B;" d="M306.101,166.05l3.261,2.857c0.597,0.523,0.702,1.412,0.244,2.06l-3.616,5.116l-4.848-7.639
			l2.953-2.426C304.682,165.537,305.531,165.55,306.101,166.05z"/>
		<path style="fill:#263238;" d="M248.919,414.612c0.831-0.695,2.163-1.27,3.341-1.686h-0.003c0,0,5.923-3.343,9.006-13.399
			l6.845-1.711c0.723-0.181,1.443,0.309,1.531,1.049c0.065,0.542,0.104,1.16,0.174,1.662c0.128,0.932,0.016,2.346-0.001,3.268
			c-0.059,3.398-0.438,11.037-0.438,11.037h-0.795c0,0-0.025-4.697-0.421-6.935c-0.396-2.238-1.976,0.412-2.862,2.944
			c-0.887,2.533-4.446,5.233-9.622,5.359C249.615,416.349,247.159,416.085,248.919,414.612z"/>
		<path style="fill:#263238;" d="M325.283,391.013c0.094-1.079,0.628-2.428,1.166-3.556l-0.002,0.002c0,0,1.815-6.555-3.128-15.839
			l3.622-6.055c0.383-0.64,1.237-0.803,1.824-0.344c0.43,0.337,0.895,0.745,1.3,1.051c0.751,0.567,1.672,1.645,2.314,2.308
			c2.365,2.441,7.506,8.104,7.506,8.104l-0.561,0.563c0,0-3.343-3.299-5.207-4.599c-1.864-1.3-1.103,1.69,0.064,4.106
			c1.167,2.416,0.566,6.844-2.999,10.597C327.005,391.746,325.083,393.298,325.283,391.013z"/>
	</g>
</g>
<g id="ID">
	<g>
		<path style="opacity:0.9;fill:#FFFFFF;" d="M298.916,103.436L193.483,93.334c-5.386-0.516-10.215,3.468-10.731,8.854
			l-15.117,157.765c-0.516,5.386,3.468,10.215,8.854,10.731l105.432,10.102c5.386,0.516,10.215-3.468,10.731-8.854l15.117-157.765
			C308.286,108.781,304.302,103.952,298.916,103.436z M276.35,163.863c-1.909,19.928-19.616,34.545-39.552,32.635
			c-13.497-1.293-24.547-9.83-29.689-21.391c-2.453-5.514-3.563-11.723-2.946-18.161c1.91-19.936,19.616-34.545,39.552-32.635
			c3.248,0.311,6.349,1.037,9.258,2.131c2.871,1.066,5.559,2.493,8.013,4.21c7.881,5.499,13.398,14.016,15.03,23.717
			C276.538,157.432,276.661,160.623,276.35,163.863z"/>
		<path style="fill:#263238;" d="M245.626,64.808l11.424,2.156c2.844,0.537,4.918,3.349,4.599,6.257l-2.21,20.119
			c-0.029,0.268-0.075,0.533-0.15,0.776c-0.653,2.464-3.027,4.014-5.608,3.526l-11.424-2.156c-2.581-0.487-4.525-2.852-4.621-5.457
			c-0.02-0.261-0.007-0.532,0.023-0.8l2.21-20.119C240.186,66.202,242.781,64.271,245.626,64.808z M250.401,74.414
			c-2.271-0.429-4.325,1.099-4.579,3.414c-0.255,2.323,1.387,4.548,3.658,4.977c2.271,0.428,4.325-1.099,4.58-3.422
			C254.314,77.068,252.671,74.843,250.401,74.414z"/>
		<path style="fill:#407BFF;" d="M280.819,107.428c-0.457,0-0.896-0.255-1.108-0.694l-4.408-9.117
			c-0.605-1.252-1.841-2.111-3.226-2.245l-50.713-4.859c-1.388-0.129-2.761,0.478-3.593,1.592l-6.059,8.114
			c-0.407,0.544-1.178,0.656-1.721,0.25c-0.544-0.406-0.656-1.177-0.25-1.721l6.059-8.114c1.343-1.799,3.567-2.784,5.797-2.568
			l50.714,4.859c2.234,0.214,4.228,1.603,5.205,3.622l4.408,9.117c0.296,0.611,0.04,1.347-0.572,1.643
			C281.181,107.389,280.998,107.428,280.819,107.428z"/>
		<path style="fill:#407BFF;" d="M176.954,135.542l-0.816-0.078l0.563-5.875l0.816,0.078L176.954,135.542z M178.043,124.182
			l-0.816-0.078l1.275-13.303l0.816,0.078L178.043,124.182z"/>
		<path style="fill:#407BFF;" d="M282.87,281.241c-0.328,0-0.657-0.016-0.987-0.047l-105.433-10.103
			c-2.714-0.26-5.17-1.569-6.918-3.686c-1.747-2.117-2.565-4.777-2.306-7.491l15.117-157.765c0.26-2.714,1.569-5.171,3.687-6.918
			c2.118-1.747,4.775-2.562,7.492-2.306l105.432,10.103c2.714,0.26,5.171,1.569,6.918,3.687c1.747,2.117,2.566,4.777,2.306,7.491
			l-15.117,157.765c-0.26,2.714-1.569,5.171-3.687,6.918C287.515,280.423,285.236,281.241,282.87,281.241z M192.537,93.698
			c-2.177,0-4.273,0.753-5.984,2.166c-1.948,1.607-3.153,3.867-3.392,6.363l-15.117,157.765c-0.239,2.496,0.514,4.943,2.122,6.892
			c1.608,1.948,3.868,3.152,6.363,3.392l105.433,10.103c2.499,0.245,4.943-0.514,6.892-2.122c1.948-1.607,3.153-3.867,3.392-6.363
			l15.117-157.765c0.239-2.496-0.514-4.943-2.122-6.892c-1.608-1.948-3.868-3.153-6.364-3.392L193.444,93.742
			C193.141,93.713,192.838,93.698,192.537,93.698z M240.324,197.076c-1.183,0-2.372-0.057-3.564-0.171
			c-13.145-1.26-24.649-9.548-30.025-21.632c-2.551-5.735-3.581-12.086-2.979-18.367c1.929-20.127,19.878-34.935,39.999-33.004
			c3.235,0.311,6.385,1.035,9.363,2.155c2.855,1.06,5.582,2.492,8.104,4.258c8.039,5.609,13.579,14.352,15.2,23.984
			c0.534,3.137,0.647,6.368,0.337,9.602c-0.934,9.748-5.609,18.55-13.163,24.784C256.964,194.158,248.811,197.076,240.324,197.076z
			 M240.23,124.554c-18.24,0-33.884,13.91-35.658,32.431c-0.589,6.141,0.418,12.35,2.912,17.955
			c5.255,11.814,16.503,19.919,29.354,21.149c9.534,0.917,18.85-1.939,26.236-8.036c7.386-6.095,11.956-14.699,12.869-24.23l0,0
			c0.303-3.162,0.192-6.32-0.33-9.387c-1.584-9.418-7.001-17.965-14.86-23.449c-2.465-1.726-5.13-3.126-7.921-4.161
			c-2.913-1.096-5.992-1.805-9.155-2.107C242.519,124.607,241.369,124.554,240.23,124.554z"/>
		<g>
			<path style="opacity:0.8;fill:#407BFF;" d="M252.974,126.441c-2.909-1.094-6.011-1.819-9.258-2.131
				c-19.936-1.91-37.642,12.699-39.552,32.635c-0.617,6.438,0.493,12.647,2.946,18.161l-34.035,28.083l9.678-101.001
				c0.516-5.386,5.345-9.37,10.731-8.854l34.935,3.347l11.186,13.557L252.974,126.441z"/>
			<path style="opacity:0.5;fill:#407BFF;" d="M307.77,114.167l-6.755,70.498l-24.998-30.297
				c-1.632-9.701-7.149-18.218-15.03-23.717l33.498-27.64l4.431,0.425C304.302,103.952,308.286,108.781,307.77,114.167z"/>
			<path style="fill:#407BFF;" d="M294.484,103.012l-33.498,27.64c-2.454-1.718-5.142-3.145-8.013-4.21l-13.37-16.204
				l-11.186-13.557L294.484,103.012z"/>
		</g>
		<path style="opacity:0.5;fill:#407BFF;" d="M266.213,219.053l-62.577-5.996c-1.048-0.1-1.816-1.031-1.715-2.079l0.314-3.278
			c0.1-1.048,1.031-1.816,2.079-1.715l62.577,5.996c1.048,0.1,1.816,1.031,1.716,2.079l-0.314,3.278
			C268.191,218.386,267.26,219.154,266.213,219.053z"/>
		<path style="opacity:0.5;fill:#407BFF;" d="M260.097,231.307l-52.784-5.058c-1.048-0.1-1.816-1.031-1.715-2.079l0.314-3.278
			c0.1-1.048,1.031-1.816,2.079-1.715l52.784,5.058c1.048,0.1,1.816,1.031,1.716,2.079l-0.314,3.278
			C262.076,230.639,261.145,231.407,260.097,231.307z"/>
		
			<rect x="183.62" y="250.171" transform="matrix(0.9954 0.0954 -0.0954 0.9954 24.8576 -17.1188)" style="opacity:0.5;fill:#407BFF;" width="15.758" height="2.58"/>
		
			<rect x="202.849" y="251.867" transform="matrix(0.9954 0.0954 -0.0954 0.9954 25.0989 -18.7989)" style="opacity:0.5;fill:#407BFF;" width="12.707" height="2.58"/>
		
			<rect x="183.019" y="256.939" transform="matrix(0.9954 0.0954 -0.0954 0.9954 25.5476 -18.0213)" style="opacity:0.5;fill:#407BFF;" width="36.531" height="2.58"/>
		
			<rect x="184.112" y="245.686" transform="matrix(0.9954 0.0954 -0.0954 0.9954 24.4945 -18.4789)" style="opacity:0.5;fill:#407BFF;" width="42.853" height="2.58"/>
		<g>
			<path style="fill:#263238;" d="M255.965,66.528l-11.568-2.109c-2.88-0.525-5.669,1.419-6.192,4.331l-3.613,20.148
				c-0.048,0.268-0.08,0.54-0.077,0.801c-0.076,2.607,1.758,4.966,4.372,5.442l11.568,2.109c2.614,0.477,5.152-1.085,5.985-3.554
				c0.094-0.243,0.158-0.509,0.206-0.777l3.613-20.148C260.783,69.859,258.846,67.053,255.965,66.528z M248.65,74.014
				c2.299,0.419,3.834,2.64,3.418,4.958c-0.417,2.326-2.626,3.864-4.925,3.445c-2.299-0.419-3.834-2.639-3.416-4.966
				C244.142,75.133,246.351,73.595,248.65,74.014z"/>
			<path style="opacity:0.2;fill:#FFFFFF;" d="M255.965,66.528l-11.568-2.109c-2.88-0.525-5.669,1.419-6.192,4.331l-3.613,20.148
				c-0.048,0.268-0.08,0.54-0.077,0.801c-0.076,2.607,1.758,4.966,4.372,5.442l11.568,2.109c2.614,0.477,5.152-1.085,5.985-3.554
				c0.094-0.243,0.158-0.509,0.206-0.777l3.613-20.148C260.783,69.859,258.846,67.053,255.965,66.528z M248.65,74.014
				c2.299,0.419,3.834,2.64,3.418,4.958c-0.417,2.326-2.626,3.864-4.925,3.445c-2.299-0.419-3.834-2.639-3.416-4.966
				C244.142,75.133,246.351,73.595,248.65,74.014z"/>
		</g>
		
			<ellipse transform="matrix(0.7713 -0.6364 0.6364 0.7713 -102.5742 233.065)" style="opacity:0.2;fill:#407BFF;" cx="273.047" cy="259.275" rx="7.094" ry="7.094"/>
		
			<ellipse transform="matrix(0.7713 -0.6364 0.6364 0.7713 -105.7215 220.7086)" style="opacity:0.8;fill:#407BFF;" cx="254.278" cy="257.477" rx="7.094" ry="7.094"/>
	</g>
</g>
</svg>
