<?xml version="1.0" encoding="utf-8"?>
<!-- Generator: Adobe Illustrator 27.5.0, SVG Export Plug-In . SVG Version: 6.00 Build 0)  -->
<svg version="1.1" id="Layer_1" xmlns="http://www.w3.org/2000/svg" xmlns:xlink="http://www.w3.org/1999/xlink" x="0px" y="0px"
	 viewBox="0 0 450 313.656" style="enable-background:new 0 0 450 313.656;" xml:space="preserve">
<g>
	<g>
		<path style="fill:#FFFFFF;" d="M319.289,223.318v3.052h1.261v-13.593h-1.44c0.116,0.528,0.179,1.073,0.179,1.63V223.318z"/>
		<path style="fill:#FFC364;" d="M281.868,177.532c0.063,0.038,0.126,0.076,0.191,0.114
			C281.995,177.607,281.932,177.57,281.868,177.532z"/>
		<path style="fill:#FFC364;" d="M246.411,174.413c2.536,7.907,7.072,15.204,14.893,22.027c0.256,0.223,0.516,0.446,0.779,0.669
			c3.682,3.057,7.547,5.921,11.577,8.561c13.54,8.871,28.957,15.198,45.628,17.648v-8.911c0-0.557-0.063-1.101-0.179-1.63
			c-0.64-2.913-2.961-5.316-6.065-6.432c-3.852-11.459-12.582-17.59-27.077-26.351l-21.638-0.034c-0.333,0-0.603-0.232-0.603-0.518
			c0-0.286,0.27-0.518,0.603-0.518h19.862c-0.49-0.294-0.987-0.592-1.49-0.894c0.119,0.073,0.232,0.143,0.332,0.209l-21.642-0.034
			c-0.333,0-0.603-0.232-0.603-0.518c0-0.286,0.27-0.518,0.603-0.518h19.872c-0.827-0.495-1.67-0.999-2.529-1.514l-28.28-0.372
			C249.033,175.232,247.66,174.929,246.411,174.413z M278.975,191.626c2.732-1.165,6.182-1.428,9.758,0.024
			c4.872,1.978,9.434,5.387,13.032,8.604c1.806,1.616,3.371,3.183,4.607,4.495c0.369,0.392,0.587,0.826,0.675,1.265
			c0.323,1.603-1.089,3.274-3.227,3.218c-5.226-0.137-13.095-1.392-19.625-3.183c-2.73-0.749-5.227-1.591-7.197-2.486
			C270.608,200.661,273.17,194.102,278.975,191.626z"/>
		<path style="fill:#EAAE57;" d="M67.201,231.919c1.193-16.556,14.787-29.818,31.726-30.252
			c17.505-0.448,32.142,12.968,33.395,30.252h90.488c0.17-2.363,0.594-4.658,1.243-6.859c-3.616,2.296-8.404,3.631-13.547,3.529
			l-54.916-1.084c-9.282-0.183-17.834-3.643-22.837-9.239l-23.485-26.272c-6.269-7.012-8.227-15.561-5.416-23.638l1.072-3.079
			l0.126,0.005l6.485-22.419c2.761-9.521,13.884-16.275,26.683-16.204l19.41,0.108l20.673,0.115
			c12.244,0.068,23.518,5.087,29.605,13.18l20.785,30.27c3.407,1.774,6.044,4.532,7.372,7.818l0.019,0.046
			c0.283,0.707,0.291,1.421,0.088,2.075c2.826,6.39,0.116,13.183-1.757,20.602l-2.782,11.022c5.76-6.102,13.855-9.996,22.906-10.228
			c17.505-0.448,32.142,12.968,33.395,30.252h29.919c0.497,0,0.977,0.058,1.439,0.155v-5.704v-3.052
			c-16.672-2.45-32.086-8.777-45.626-17.648c-4.03-2.64-7.898-5.504-11.579-8.561c-0.265-0.224-0.525-0.447-0.779-0.669
			c-7.821-6.823-12.357-14.12-14.893-22.027c-1.566-0.647-2.938-1.629-3.968-2.879l-16.712-20.29l-16.715-20.293
			c-1.333-1.619-0.514-3.884,1.653-4.568l6.317-1.993l-2.651-2.264c-0.771-0.462-1.572-0.885-2.399-1.271
			c0.093,0.075,0.179,0.15,0.254,0.227l-46.615,0.705l-85.183,1.288l-26.35,34.832c-0.965,1.65-1.457,3.447-1.443,5.263l0.152,19.03
			c0.741-0.391,1.681-0.554,2.637-0.37c3.946,0.758,9.247,2.273,8.486,4.872c-0.734,2.506-5.378,3.531-8.848,3.949
			c-0.804,0.097-1.573-0.043-2.21-0.344l0.029,3.604c0.726-0.355,1.628-0.495,2.544-0.319c3.946,0.758,9.247,2.273,8.486,4.872
			c-0.734,2.506-5.378,3.531-8.848,3.949c-0.764,0.092-1.498-0.027-2.116-0.298l0.035,4.346c-3.504,1.379-5.94,4.417-5.94,7.946
			v17.687c0.489-0.11,1-0.175,1.529-0.175H67.201z M79.47,197.495c-5.06,0-9.162-3.525-9.162-7.873c0-4.348,4.102-7.873,9.162-7.873
			c5.06,0,9.162,3.525,9.162,7.873C88.632,193.97,84.531,197.495,79.47,197.495z M61.346,166.87l-0.215-2.47
			c-0.11-1.262,0.214-2.524,0.932-3.628l20.9-32.151c1.342-2.065,3.892-3.333,6.645-3.304l10.143,0.106
			c4.962,0.052,8.501,4.153,7.117,8.249l-11.765,34.824c-0.946,2.799-3.959,4.706-7.351,4.651l-19.062-0.309
			C64.818,172.774,61.636,170.189,61.346,166.87z"/>
		<path style="fill:#4B3C4F;" d="M287.716,238.572c-0.285,2.058-0.763,4.054-1.419,6.007l-3.972,0.019
			c-0.008,0.022-0.016,0.044-0.025,0.065h35.55c3.053,0,5.569-1.959,5.952-4.493C311.773,240.461,299.745,240.171,287.716,238.572z"
			/>
		<path style="fill:#4B3C4F;" d="M222.734,235.139c-0.028-1.085-0.001-2.159,0.076-3.22h-90.488c0.037,0.513,0.064,1.03,0.077,1.55
			c0.1,3.931-0.526,7.587-1.711,11.11l-3.972,0.019c-0.008,0.022-0.016,0.044-0.025,0.065h98.076
			C223.46,241.32,222.833,238.989,222.734,235.139z"/>
		<path style="fill:#4B3C4F;" d="M67.126,235.139c-0.028-1.085-0.001-2.159,0.075-3.22H48.533c-0.53,0-1.04,0.065-1.529,0.175
			c-2.576,0.582-4.479,2.591-4.479,4.988v2.419c0,2.851,2.69,5.163,6.008,5.163h20.626C67.852,241.32,67.224,238.989,67.126,235.139
			z"/>
		<path style="fill:#604C66;" d="M319.289,232.074c-0.462-0.098-0.942-0.155-1.439-0.155H287.93c0.037,0.513,0.064,1.03,0.077,1.55
			c0.045,1.752-0.062,3.448-0.292,5.103c12.029,1.599,24.057,1.889,36.086,1.598c0.033-0.22,0.056-0.442,0.056-0.67v-2.419
			C323.858,234.657,321.911,232.629,319.289,232.074z"/>
		<path style="fill:#E55555;" d="M55.024,190.651c3.47-0.418,8.114-1.443,8.848-3.949c0.761-2.598-4.54-4.114-8.486-4.872
			c-0.956-0.184-1.896-0.021-2.637,0.37c-0.866,0.457-1.461,1.226-1.48,2.132l-0.075,3.685c-0.02,0.982,0.643,1.827,1.62,2.288
			C53.451,190.608,54.22,190.748,55.024,190.651z"/>
		<path style="fill:#E55555;" d="M55.024,202.412c3.47-0.418,8.114-1.443,8.848-3.949c0.761-2.598-4.54-4.114-8.486-4.872
			c-0.916-0.176-1.818-0.036-2.544,0.319c-0.918,0.45-1.554,1.244-1.573,2.183l-0.075,3.686c-0.021,1.014,0.685,1.884,1.714,2.335
			C53.526,202.385,54.261,202.504,55.024,202.412z"/>
		<path style="fill:#AF7631;" d="M276.996,203.562c1.97,0.895,4.467,1.737,7.197,2.486c6.53,1.792,14.399,3.046,19.625,3.183
			c2.138,0.056,3.55-1.615,3.227-3.218c-0.089-0.439-0.306-0.873-0.675-1.265c-1.236-1.312-2.8-2.88-4.607-4.495
			c-3.597-3.217-8.159-6.626-13.032-8.604c-3.576-1.451-7.025-1.189-9.758-0.024C273.17,194.102,270.608,200.661,276.996,203.562z
			 M280.203,193.246c2.474-0.923,5.576-1.098,8.76,0.136c4.34,1.68,8.375,4.531,11.548,7.213c1.593,1.347,2.97,2.651,4.057,3.742
			c0.325,0.326,0.512,0.684,0.584,1.046c0.262,1.319-1.035,2.673-2.954,2.601c-4.689-0.175-11.732-1.297-17.563-2.844
			c-2.438-0.647-4.665-1.367-6.418-2.125C272.532,200.557,274.947,195.208,280.203,193.246z"/>
		<path style="fill:#E29B29;" d="M278.216,203.014c1.753,0.757,3.98,1.478,6.418,2.125c1.372-1.325,2.991-2.469,4.708-3.431
			c-1.625-0.78-3.13-1.695-4.468-2.766c-1.948-1.559-3.549-3.44-4.671-5.696C274.947,195.208,272.532,200.557,278.216,203.014z"/>
		<path style="fill:#FFB42E;" d="M284.634,205.139c5.831,1.547,12.874,2.67,17.563,2.844c1.919,0.072,3.216-1.282,2.954-2.601
			c-5.627-0.354-11.209-1.465-15.81-3.674C287.625,202.67,286.006,203.814,284.634,205.139z"/>
		<path style="fill:#FFFFFF;" d="M284.874,198.942c5.061,1.285,10.404,1.893,15.637,1.653c-3.173-2.682-7.208-5.533-11.548-7.213
			c-3.185-1.233-6.287-1.059-8.76-0.136C281.325,195.501,282.926,197.383,284.874,198.942z"/>
		<path style="fill:#E8D9E3;" d="M284.874,198.942c1.338,1.071,2.843,1.985,4.468,2.766c4.601,2.21,10.183,3.32,15.81,3.674
			c-0.072-0.361-0.259-0.72-0.584-1.046c-1.087-1.091-2.463-2.395-4.057-3.742C295.277,200.835,289.935,200.226,284.874,198.942z"/>
		<path style="fill:#CC9246;" d="M234.412,200.873c1.873-7.419,4.583-14.212,1.757-20.602c-0.02,0.065-0.042,0.13-0.066,0.193
			c0.01,0.003,0.016,0.005,0.016,0.005c-0.005,0-0.012,0.003-0.02,0.005c-0.492,1.281-1.806,2.294-3.465,2.502
			c-4.247,2.666-12.612,6.384-26.492,5.479c-3.401-0.222-6.354-2.274-7.037-5.145c-0.551-2.312,0.347-4.808,3.46-6.337
			c-0.052-0.24-0.091-0.485-0.115-0.733l-97.006-1.35c-1.622-0.023-2.801-1.287-2.422-2.598l2.028-7.01l-0.126-0.005l-1.072,3.079
			c-2.811,8.077-0.853,16.625,5.416,23.638l23.485,26.272c5.003,5.596,13.555,9.056,22.837,9.239l54.916,1.084
			c5.143,0.102,9.931-1.233,13.547-3.529c1.469-4.981,4.096-9.477,7.578-13.165L234.412,200.873z M109.647,183.961
			c0-2.834,2.297-5.131,5.131-5.131h12.427c2.834,0,5.131,2.297,5.131,5.131C134.588,190.697,109.647,183.961,109.647,183.961z"/>
		<path style="fill:#4B3C4F;" d="M105.444,174.891l97.006,1.35c0.024,0.248,0.063,0.493,0.115,0.733
			c0.746,3.439,4.255,6.044,8.474,6.044h20.966c0.215,0,0.424-0.015,0.629-0.04c1.659-0.208,2.973-1.221,3.465-2.502
			c0.001-0.003,0.002-0.007,0.004-0.01c0.024-0.064,0.046-0.128,0.066-0.193c0.203-0.655,0.195-1.369-0.088-2.075l-0.019-0.046
			c-8.432-1.084-15.988-3.965-20.719-9.952h-4.304c-2.711,0-5.129,1.076-6.71,2.758c-0.267-0.096-0.534-0.191-0.801-0.29
			c-21.277-7.836-39.974-24.347-45.901-43.898l-19.41-0.108c-12.799-0.071-23.922,6.683-26.683,16.204l-6.485,22.419l-2.028,7.01
			C102.643,173.603,103.822,174.868,105.444,174.891z M138.636,126.848l3.599-0.122l3.889,48.38h-4.354L138.636,126.848z"/>
		<path style="fill:#604C66;" d="M203.528,170.666c0.267,0.098,0.534,0.194,0.801,0.29c1.581-1.681,3.998-2.758,6.71-2.758h4.304
			c4.731,5.988,12.287,8.868,20.719,9.952c-1.329-3.285-3.965-6.044-7.372-7.818l-20.785-30.27
			c-6.088-8.093-17.362-13.112-29.605-13.18l-20.673-0.115C163.553,146.319,182.251,162.83,203.528,170.666z"/>
		<path style="fill:#604C66;" d="M209.015,130.951l16.715,20.293c11.166,8.981,26.14,13.674,41.701,14.804l-49.563-41.936
			l-0.882,0.278l-6.317,1.993C208.502,127.067,207.682,129.332,209.015,130.951z"/>
		<path style="fill:#4B3C4F;" d="M225.73,151.244l16.712,20.29c1.03,1.25,2.402,2.232,3.968,2.879
			c1.25,0.516,2.622,0.819,4.044,0.871l28.28,0.372l0.023,0l-11.326-9.608C251.87,164.918,236.897,160.225,225.73,151.244z"/>
		<path style="fill:#4B3C4F;" d="M87.752,173.146c3.392,0.055,6.405-1.852,7.351-4.651l11.765-34.824
			c1.384-4.095-2.155-8.197-7.117-8.249l-10.143-0.106c-2.752-0.029-5.302,1.239-6.645,3.304l-20.9,32.151
			c-0.718,1.105-1.042,2.367-0.932,3.628l0.215,2.47c0.29,3.319,3.471,5.904,7.344,5.967L87.752,173.146z"/>
		<path style="fill:#604C66;" d="M79.47,181.749c-5.06,0-9.162,3.525-9.162,7.873c0,4.348,4.102,7.873,9.162,7.873
			c5.06,0,9.162-3.525,9.162-7.873C88.632,185.274,84.531,181.749,79.47,181.749z"/>
		<polygon style="fill:#604C66;" points="146.124,175.105 142.235,126.725 138.636,126.848 141.769,175.105 		"/>
		<path style="fill:#FFC364;" d="M165.574,121.788l46.615-0.705c-0.075-0.077-0.161-0.152-0.254-0.227
			c-3.351-2.687-18.384-4.11-37.256-4.713c-39.421-1.259-95.592,1.059-97.025,2.906c-2.138,2.756,2.737,4.027,2.737,4.027
			L165.574,121.788z"/>
		<path style="fill:#AF7631;" d="M226.964,235.092c-0.405-15.806,12.081-28.947,27.887-29.351
			c15.806-0.404,28.947,12.081,29.351,27.887c0.099,3.866-0.575,7.571-1.878,10.97l3.972-0.019c0.656-1.952,1.134-3.948,1.419-6.007
			c0.229-1.656,0.336-3.351,0.292-5.103c-0.013-0.52-0.04-1.036-0.077-1.55c-1.252-17.284-15.89-30.7-33.395-30.252
			c-9.051,0.232-17.146,4.126-22.906,10.228c-3.482,3.689-6.108,8.184-7.578,13.165c-0.649,2.201-1.073,4.496-1.243,6.859
			c-0.077,1.061-0.103,2.135-0.076,3.22c0.098,3.85,0.726,6.181,2.033,9.524c0.027,0.07,0.053,0.138,0.081,0.209l4.091-0.02
			C227.746,241.822,227.053,238.536,226.964,235.092z"/>
		<path style="fill:#3E2E49;" d="M284.202,233.628c-0.404-15.806-13.546-28.291-29.351-27.887
			c-15.806,0.404-28.291,13.545-27.887,29.351c0.088,3.444,0.781,6.73,1.975,9.76c4.284,10.875,15.015,18.443,27.377,18.127
			c11.916-0.305,21.943-7.849,25.984-18.316c0.009-0.022,0.017-0.043,0.025-0.065C283.628,241.198,284.301,237.493,284.202,233.628z
			 M270.845,251.145c-3.888,3.538-9.013,5.754-14.681,5.899c-0.374,0.009-0.747,0.009-1.117,0c-0.123-0.003-0.244-0.011-0.366-0.016
			c-0.247-0.01-0.494-0.02-0.739-0.037c-0.145-0.01-0.288-0.026-0.432-0.039c-0.221-0.02-0.441-0.04-0.66-0.067
			c-0.152-0.018-0.302-0.04-0.453-0.061c-0.209-0.029-0.417-0.06-0.625-0.095c-0.154-0.026-0.306-0.055-0.458-0.083
			c-0.202-0.039-0.404-0.08-0.605-0.123c-0.152-0.033-0.304-0.068-0.455-0.105c-0.199-0.048-0.397-0.099-0.594-0.152
			c-0.148-0.04-0.296-0.08-0.443-0.123c-0.199-0.058-0.395-0.12-0.592-0.184c-0.142-0.046-0.284-0.09-0.425-0.139
			c-0.202-0.069-0.402-0.144-0.602-0.219c-0.131-0.049-0.263-0.096-0.393-0.148c-0.22-0.087-0.437-0.181-0.654-0.276
			c-0.106-0.046-0.213-0.089-0.318-0.136c-0.318-0.144-0.632-0.294-0.941-0.452c-0.061-0.031-0.12-0.065-0.18-0.097
			c-0.249-0.13-0.497-0.262-0.742-0.401c-0.114-0.065-0.225-0.135-0.339-0.202c-0.187-0.111-0.374-0.221-0.557-0.337
			c-0.124-0.079-0.246-0.161-0.369-0.242c-0.168-0.111-0.336-0.222-0.501-0.337c-0.125-0.088-0.249-0.178-0.372-0.268
			c-0.158-0.115-0.314-0.231-0.469-0.35c-0.123-0.095-0.245-0.192-0.367-0.289c-0.078-0.063-0.159-0.122-0.236-0.186
			c-0.116-0.095-0.23-0.193-0.344-0.291c-0.027-0.023-0.054-0.045-0.081-0.068c-0.242-0.209-0.478-0.424-0.71-0.643
			c-0.039-0.037-0.079-0.073-0.118-0.111c-0.225-0.215-0.444-0.434-0.66-0.658c-0.042-0.044-0.084-0.087-0.126-0.131
			c-0.213-0.224-0.421-0.453-0.625-0.685c-0.038-0.044-0.076-0.088-0.114-0.132c-0.205-0.238-0.407-0.48-0.602-0.727
			c-0.029-0.036-0.056-0.073-0.085-0.109c-0.203-0.259-0.401-0.522-0.593-0.79c-0.01-0.014-0.02-0.028-0.03-0.042
			c-0.189-0.266-0.372-0.536-0.55-0.811c-0.019-0.03-0.04-0.06-0.059-0.09c-0.174-0.271-0.341-0.547-0.504-0.826
			c-0.027-0.046-0.053-0.091-0.08-0.137c-0.157-0.274-0.308-0.551-0.453-0.832c-0.027-0.052-0.053-0.103-0.08-0.155
			c-0.143-0.281-0.281-0.566-0.413-0.854c-0.023-0.05-0.045-0.101-0.068-0.151c-0.132-0.295-0.259-0.593-0.379-0.895
			c-0.015-0.038-0.029-0.076-0.044-0.114c-0.124-0.318-0.243-0.638-0.354-0.963c-0.003-0.008-0.005-0.016-0.008-0.023
			c-0.109-0.324-0.211-0.651-0.306-0.981c-0.01-0.034-0.021-0.068-0.03-0.102c-0.09-0.32-0.173-0.643-0.25-0.968
			c-0.012-0.051-0.024-0.101-0.036-0.152c-0.073-0.319-0.139-0.641-0.198-0.965c-0.01-0.057-0.02-0.113-0.031-0.17
			c-0.057-0.325-0.107-0.652-0.15-0.982c-0.007-0.053-0.013-0.106-0.02-0.159c-0.042-0.338-0.077-0.678-0.104-1.02
			c-0.003-0.038-0.005-0.076-0.008-0.113c-0.026-0.36-0.046-0.723-0.055-1.088c0-0.001,0-0.001,0-0.002
			c-0.1-3.915,0.797-7.624,2.461-10.883c0.167-0.326,0.34-0.647,0.522-0.964c0.241-0.42,0.499-0.829,0.766-1.231
			c0.719-1.087,1.525-2.111,2.416-3.056c0.272-0.289,0.551-0.573,0.837-0.847c0.406-0.388,0.83-0.757,1.264-1.114
			c0.338-0.278,0.682-0.548,1.036-0.807c2.038-1.492,4.336-2.651,6.818-3.399c0.204-0.061,0.408-0.12,0.614-0.176
			c1.716-0.465,3.513-0.739,5.37-0.787c0.385-0.01,0.768-0.01,1.15,0c0.127,0.003,0.252,0.013,0.379,0.018
			c0.253,0.01,0.506,0.02,0.757,0.038c0.151,0.011,0.301,0.03,0.452,0.044c0.224,0.021,0.448,0.04,0.669,0.068
			c0.16,0.02,0.318,0.047,0.478,0.07c0.21,0.031,0.42,0.059,0.627,0.095c0.164,0.029,0.326,0.064,0.489,0.096
			c0.2,0.039,0.4,0.077,0.598,0.122c0.165,0.037,0.328,0.081,0.493,0.122c0.193,0.048,0.385,0.095,0.576,0.148
			c0.165,0.046,0.328,0.097,0.492,0.147c0.186,0.056,0.372,0.112,0.556,0.172c0.164,0.054,0.326,0.113,0.488,0.172
			c0.18,0.064,0.36,0.128,0.538,0.196c0.162,0.062,0.322,0.13,0.482,0.196c0.174,0.072,0.348,0.143,0.52,0.219
			c0.16,0.071,0.317,0.145,0.475,0.219c0.169,0.079,0.337,0.158,0.504,0.242c0.156,0.078,0.311,0.16,0.465,0.242
			c0.163,0.087,0.327,0.173,0.487,0.264c0.153,0.086,0.304,0.175,0.454,0.264c0.158,0.094,0.315,0.188,0.471,0.285
			c0.149,0.093,0.296,0.189,0.443,0.286c0.152,0.1,0.304,0.202,0.454,0.305c0.145,0.1,0.287,0.203,0.43,0.306
			c0.147,0.107,0.293,0.215,0.437,0.326c0.139,0.107,0.277,0.215,0.414,0.325c0.142,0.114,0.283,0.23,0.422,0.347
			c0.134,0.113,0.266,0.227,0.398,0.343c0.065,0.058,0.133,0.112,0.198,0.171c0.066,0.06,0.128,0.123,0.193,0.183
			c0.146,0.135,0.29,0.272,0.432,0.411c0.122,0.119,0.243,0.239,0.362,0.361c0.139,0.142,0.276,0.286,0.411,0.431
			c0.116,0.125,0.232,0.252,0.346,0.379c0.132,0.148,0.261,0.298,0.389,0.45c0.111,0.131,0.22,0.263,0.328,0.396
			c0.125,0.154,0.246,0.311,0.367,0.469c0.104,0.136,0.208,0.273,0.309,0.412c0.117,0.161,0.23,0.324,0.343,0.488
			c0.098,0.142,0.195,0.283,0.29,0.427c0.109,0.166,0.214,0.335,0.319,0.504c0.091,0.147,0.182,0.293,0.27,0.443
			c0.101,0.172,0.198,0.347,0.295,0.522c0.084,0.151,0.168,0.302,0.248,0.455c0.093,0.178,0.181,0.358,0.27,0.539
			c0.076,0.155,0.153,0.31,0.226,0.467c0.085,0.183,0.164,0.369,0.243,0.555c0.068,0.159,0.138,0.317,0.203,0.479
			c0.076,0.189,0.146,0.381,0.217,0.573c0.06,0.162,0.122,0.323,0.179,0.486c0.068,0.196,0.128,0.394,0.19,0.592
			c0.051,0.164,0.106,0.327,0.153,0.492c0.059,0.202,0.11,0.408,0.163,0.613c0.043,0.165,0.089,0.329,0.128,0.495
			c0.05,0.212,0.091,0.427,0.135,0.641c0.033,0.163,0.07,0.324,0.1,0.488c0.041,0.225,0.073,0.454,0.107,0.682
			c0.023,0.156,0.052,0.311,0.072,0.469c0.033,0.251,0.055,0.506,0.079,0.76c0.013,0.136,0.031,0.271,0.042,0.408
			c0.029,0.377,0.048,0.758,0.059,1.14c0,0.015,0.002,0.03,0.002,0.045c0.16,6.266-2.235,12.003-6.236,16.213
			C271.652,250.392,271.253,250.774,270.845,251.145z"/>
		<path style="fill:#664D77;" d="M237.105,247.535c-0.01-0.014-0.02-0.028-0.03-0.042
			C237.085,247.507,237.095,247.521,237.105,247.535z"/>
		<path style="fill:#664D77;" d="M239.249,250.109c-0.042-0.044-0.084-0.087-0.126-0.131
			C239.165,250.022,239.207,250.066,239.249,250.109z"/>
		<path style="fill:#664D77;" d="M240.027,250.878c-0.039-0.037-0.079-0.073-0.118-0.111
			C239.948,250.804,239.988,250.841,240.027,250.878z"/>
		<path style="fill:#664D77;" d="M240.818,251.589c-0.027-0.023-0.054-0.045-0.081-0.068
			C240.764,251.544,240.791,251.566,240.818,251.589z"/>
		<path style="fill:#664D77;" d="M241.765,252.355c-0.123-0.095-0.245-0.192-0.367-0.289
			C241.519,252.164,241.641,252.26,241.765,252.355z"/>
		<path style="fill:#664D77;" d="M243.476,253.552c-0.124-0.079-0.246-0.161-0.369-0.242
			C243.23,253.391,243.351,253.474,243.476,253.552z"/>
		<path style="fill:#664D77;" d="M242.606,252.973c-0.125-0.088-0.249-0.178-0.372-0.268
			C242.357,252.795,242.481,252.885,242.606,252.973z"/>
		<path style="fill:#664D77;" d="M270.845,251.145c0.408-0.371,0.807-0.753,1.187-1.152
			C271.652,250.392,271.253,250.774,270.845,251.145z"/>
		<path style="fill:#664D77;" d="M235.963,245.765c-0.027-0.046-0.053-0.091-0.08-0.137
			C235.91,245.675,235.937,245.72,235.963,245.765z"/>
		<path style="fill:#664D77;" d="M238.499,249.293c-0.038-0.044-0.076-0.088-0.114-0.132
			C238.423,249.205,238.46,249.249,238.499,249.293z"/>
		<path style="fill:#664D77;" d="M236.526,246.682c-0.019-0.03-0.04-0.06-0.059-0.09
			C236.486,246.622,236.506,246.652,236.526,246.682z"/>
		<path style="fill:#664D77;" d="M237.782,248.434c-0.029-0.036-0.056-0.073-0.085-0.109
			C237.726,248.361,237.754,248.398,237.782,248.434z"/>
		<path style="fill:#664D77;" d="M252.85,256.887c-0.152-0.018-0.302-0.04-0.453-0.061
			C252.547,256.846,252.698,256.868,252.85,256.887z"/>
		<path style="fill:#664D77;" d="M250.709,256.523c-0.152-0.033-0.304-0.068-0.455-0.105
			C250.405,256.455,250.557,256.49,250.709,256.523z"/>
		<path style="fill:#664D77;" d="M251.772,256.73c-0.154-0.026-0.306-0.055-0.458-0.083
			C251.466,256.676,251.618,256.704,251.772,256.73z"/>
		<path style="fill:#664D77;" d="M249.66,256.266c-0.148-0.04-0.296-0.08-0.443-0.123
			C249.364,256.186,249.512,256.226,249.66,256.266z"/>
		<path style="fill:#664D77;" d="M253.941,256.992c-0.145-0.01-0.288-0.026-0.432-0.039
			C253.654,256.966,253.797,256.982,253.941,256.992z"/>
		<path style="fill:#664D77;" d="M255.046,257.045c-0.123-0.003-0.244-0.011-0.366-0.016
			C254.803,257.034,254.924,257.042,255.046,257.045z"/>
		<path style="fill:#664D77;" d="M248.625,255.96c-0.142-0.046-0.284-0.09-0.425-0.139
			C248.341,255.869,248.483,255.914,248.625,255.96z"/>
		<path style="fill:#664D77;" d="M245.293,254.589c-0.061-0.031-0.12-0.065-0.18-0.097
			C245.173,254.524,245.232,254.558,245.293,254.589z"/>
		<path style="fill:#664D77;" d="M246.552,255.177c-0.106-0.046-0.213-0.089-0.318-0.136
			C246.339,255.089,246.446,255.132,246.552,255.177z"/>
		<path style="fill:#664D77;" d="M244.371,254.091c-0.114-0.065-0.225-0.135-0.339-0.202
			C244.146,253.956,244.257,254.026,244.371,254.091z"/>
		<path style="fill:#664D77;" d="M247.598,255.601c-0.131-0.049-0.263-0.096-0.393-0.148
			C247.335,255.505,247.467,255.552,247.598,255.601z"/>
		<path style="fill:#664D77;" d="M273.259,220.135c0.125,0.154,0.246,0.312,0.367,0.469
			C273.506,220.447,273.384,220.29,273.259,220.135z"/>
		<path style="fill:#664D77;" d="M273.935,221.016c0.117,0.161,0.23,0.324,0.343,0.488
			C274.166,221.34,274.052,221.177,273.935,221.016z"/>
		<path style="fill:#664D77;" d="M272.543,219.289c0.132,0.148,0.261,0.298,0.389,0.45
			C272.804,219.588,272.674,219.437,272.543,219.289z"/>
		<path style="fill:#664D77;" d="M274.568,221.931c0.109,0.166,0.214,0.335,0.319,0.504
			C274.782,222.266,274.677,222.098,274.568,221.931z"/>
		<path style="fill:#664D77;" d="M271.785,218.479c0.139,0.142,0.276,0.286,0.411,0.431
			C272.061,218.764,271.925,218.621,271.785,218.479z"/>
		<path style="fill:#664D77;" d="M270.202,217.01c0.134,0.113,0.266,0.227,0.398,0.343
			C270.468,217.237,270.336,217.123,270.202,217.01z"/>
		<path style="fill:#664D77;" d="M270.991,217.707c0.146,0.135,0.29,0.272,0.432,0.411
			C271.281,217.979,271.137,217.842,270.991,217.707z"/>
		<path style="fill:#664D77;" d="M269.366,216.337c0.139,0.107,0.277,0.215,0.414,0.325
			C269.643,216.553,269.505,216.444,269.366,216.337z"/>
		<path style="fill:#664D77;" d="M277.672,229.147c0.05,0.212,0.091,0.427,0.135,0.641
			C277.763,229.574,277.721,229.359,277.672,229.147z"/>
		<path style="fill:#664D77;" d="M275.157,222.878c0.101,0.172,0.198,0.347,0.295,0.522
			C275.355,223.225,275.258,223.05,275.157,222.878z"/>
		<path style="fill:#664D77;" d="M277.037,226.955c0.068,0.196,0.128,0.395,0.19,0.592
			C277.165,227.349,277.105,227.151,277.037,226.955z"/>
		<path style="fill:#664D77;" d="M277.907,230.276c0.041,0.225,0.073,0.454,0.107,0.682
			C277.98,230.73,277.948,230.501,277.907,230.276z"/>
		<path style="fill:#664D77;" d="M277.381,228.039c0.059,0.202,0.11,0.408,0.163,0.613
			C277.491,228.447,277.44,228.242,277.381,228.039z"/>
		<path style="fill:#664D77;" d="M275.699,223.855c0.093,0.178,0.181,0.358,0.27,0.539
			C275.88,224.214,275.793,224.033,275.699,223.855z"/>
		<path style="fill:#664D77;" d="M276.195,224.861c0.085,0.183,0.164,0.369,0.243,0.555
			C276.358,225.231,276.28,225.045,276.195,224.861z"/>
		<path style="fill:#664D77;" d="M276.641,225.895c0.076,0.189,0.146,0.381,0.217,0.573
			C276.788,226.277,276.717,226.085,276.641,225.895z"/>
		<path style="fill:#664D77;" d="M263.744,213.183c0.162,0.063,0.322,0.13,0.482,0.196
			C264.066,213.312,263.906,213.245,263.744,213.183z"/>
		<path style="fill:#664D77;" d="M256.153,211.675c0.127,0.003,0.252,0.013,0.379,0.018
			C256.405,211.688,256.28,211.678,256.153,211.675z"/>
		<path style="fill:#664D77;" d="M257.289,211.731c0.151,0.011,0.301,0.03,0.452,0.044
			C257.59,211.761,257.44,211.742,257.289,211.731z"/>
		<path style="fill:#664D77;" d="M249.019,212.638c0.204-0.061,0.408-0.12,0.614-0.176
			C249.427,212.518,249.222,212.577,249.019,212.638z"/>
		<path style="fill:#664D77;" d="M259.515,212.008c0.164,0.029,0.326,0.064,0.489,0.096
			C259.841,212.072,259.679,212.037,259.515,212.008z"/>
		<path style="fill:#664D77;" d="M258.41,211.843c0.16,0.02,0.318,0.047,0.478,0.07C258.728,211.889,258.57,211.863,258.41,211.843z
			"/>
		<path style="fill:#664D77;" d="M235.882,223.093c0.241-0.42,0.499-0.829,0.766-1.231
			C236.381,222.265,236.122,222.673,235.882,223.093z"/>
		<path style="fill:#664D77;" d="M239.063,218.806c0.272-0.289,0.551-0.573,0.837-0.847
			C239.614,218.233,239.336,218.517,239.063,218.806z"/>
		<path style="fill:#664D77;" d="M268.499,215.705c0.145,0.1,0.287,0.203,0.43,0.306
			C268.786,215.908,268.643,215.805,268.499,215.705z"/>
		<path style="fill:#664D77;" d="M241.165,216.844c0.338-0.278,0.682-0.548,1.036-0.807
			C241.847,216.296,241.503,216.566,241.165,216.844z"/>
		<path style="fill:#664D77;" d="M265.725,214.059c0.156,0.078,0.311,0.16,0.465,0.242
			C266.036,214.219,265.881,214.137,265.725,214.059z"/>
		<path style="fill:#664D77;" d="M266.677,214.565c0.153,0.086,0.304,0.175,0.454,0.264
			C266.981,214.74,266.83,214.651,266.677,214.565z"/>
		<path style="fill:#664D77;" d="M267.602,215.114c0.149,0.093,0.296,0.189,0.443,0.286
			C267.898,215.303,267.751,215.207,267.602,215.114z"/>
		<path style="fill:#664D77;" d="M261.67,212.495c0.165,0.046,0.328,0.097,0.492,0.147
			C261.998,212.593,261.835,212.542,261.67,212.495z"/>
		<path style="fill:#664D77;" d="M264.746,213.598c0.16,0.071,0.317,0.145,0.475,0.219
			C265.064,213.743,264.906,213.669,264.746,213.598z"/>
		<path style="fill:#664D77;" d="M260.602,212.226c0.165,0.037,0.329,0.081,0.493,0.122
			C260.93,212.307,260.767,212.264,260.602,212.226z"/>
		<path style="fill:#664D77;" d="M262.718,212.815c0.164,0.054,0.326,0.113,0.488,0.172
			C263.043,212.928,262.882,212.869,262.718,212.815z"/>
		<path style="fill:#664D77;" d="M235.35,244.642c0.026,0.052,0.053,0.103,0.08,0.155
			C235.404,244.745,235.377,244.694,235.35,244.642z"/>
		<path style="fill:#664D77;" d="M234.938,243.788c-0.023-0.05-0.045-0.101-0.068-0.151
			C234.893,243.687,234.915,243.738,234.938,243.788z"/>
		<path style="fill:#664D77;" d="M234.093,241.665c-0.003-0.008-0.005-0.016-0.008-0.023
			C234.088,241.65,234.09,241.658,234.093,241.665z"/>
		<path style="fill:#664D77;" d="M233.78,240.662c-0.01-0.034-0.021-0.068-0.03-0.102
			C233.759,240.594,233.77,240.628,233.78,240.662z"/>
		<path style="fill:#664D77;" d="M234.49,242.742c-0.015-0.038-0.029-0.076-0.044-0.114
			C234.461,242.666,234.475,242.704,234.49,242.742z"/>
		<path style="fill:#664D77;" d="M233.266,238.474c-0.01-0.057-0.02-0.113-0.031-0.17
			C233.245,238.361,233.255,238.417,233.266,238.474z"/>
		<path style="fill:#664D77;" d="M233.5,239.591c-0.012-0.051-0.024-0.101-0.036-0.152C233.475,239.49,233.488,239.54,233.5,239.591
			z"/>
		<path style="fill:#664D77;" d="M232.962,236.143c-0.003-0.038-0.005-0.076-0.008-0.113
			C232.957,236.068,232.959,236.105,232.962,236.143z"/>
		<path style="fill:#664D77;" d="M233.085,237.322c-0.007-0.053-0.013-0.106-0.02-0.159
			C233.072,237.216,233.078,237.269,233.085,237.322z"/>
		<path style="fill:#664D77;" d="M235.36,224.057c-1.664,3.259-2.561,6.968-2.461,10.883c0,0.001,0,0.001,0,0.002
			c0-0.001,0-0.001,0-0.002C232.798,231.025,233.696,227.316,235.36,224.057z"/>
		<path style="fill:#664D77;" d="M278.207,232.594c0.029,0.377,0.048,0.758,0.059,1.14
			C278.255,233.352,278.236,232.972,278.207,232.594z"/>
		<path style="fill:#664D77;" d="M278.165,232.187c-0.024-0.254-0.047-0.509-0.079-0.76
			C278.118,231.678,278.141,231.932,278.165,232.187z"/>
		<path style="fill:#664D77;" d="M255.118,216.189c-2.995,0.077-5.805,0.878-8.266,2.231c1.06,3.699,3.791,11.12,8.596,10.903
			c4.61-0.209,7.878-6.91,9.342-10.629C261.958,217.023,258.641,216.099,255.118,216.189z"/>
		<path style="fill:#543D66;" d="M252.026,252.187c0.422-1.597,0.897-3.681,1.171-5.8c-2.227,1.425-4.514,2.624-6.848,3.622
			C248.081,251.035,249.994,251.781,252.026,252.187z"/>
		<path style="fill:#664D77;" d="M253.368,241.781c-0.184-2.1-1.909-3.765-4.015-3.846c-3.542-0.136-7.893,1.88-10.574,3.354
			c1.517,3.667,4.198,6.723,7.569,8.72c2.334-0.998,4.622-2.197,6.848-3.622C253.401,244.81,253.493,243.213,253.368,241.781z"/>
		<path style="fill:#664D77;" d="M256.049,243.448c-0.008,0.311,0,0.628,0.016,0.947c2.275-1.732,4.37-3.673,6.223-5.785
			c-0.15-0.025-0.299-0.049-0.447-0.07C258.842,238.11,256.124,240.42,256.049,243.448z"/>
		<path style="fill:#543D66;" d="M256.065,244.396c0.139,2.79,1.12,5.829,1.964,7.976c6.31-0.852,11.571-4.94,14.105-10.501
			c-2.339-1.034-6.416-2.681-9.846-3.26C260.435,240.723,258.341,242.664,256.065,244.396z"/>
		<path style="fill:#543D66;" d="M263.966,236.561c2.729,1.31,6.542,1.551,9.414,1.503c0.279-1.343,0.41-2.739,0.374-4.169
			c-0.1-3.897-1.426-7.48-3.599-10.389C269.139,228.222,266.961,232.641,263.966,236.561z"/>
		<path style="fill:#664D77;" d="M268.139,221.229c-2.936,2.363-9.326,8.195-7.112,12.658c0.59,1.189,1.643,2.052,2.94,2.674
			c2.995-3.92,5.172-8.339,6.189-13.055C269.547,222.691,268.872,221.93,268.139,221.229z"/>
		<path style="fill:#664D77;" d="M237.65,237.324c3.757,0.252,9.446-0.057,11.002-3.937c1.762-4.392-2.67-10.013-5.097-12.642
			c-3.885,3.438-6.286,8.501-6.143,14.081C237.434,235.674,237.515,236.508,237.65,237.324z"/>
		<path style="fill:#A38ABA;" d="M246.349,250.009c-3.371-1.997-6.052-5.053-7.569-8.72c2.68-1.474,7.032-3.49,10.574-3.354
			c2.107,0.081,3.831,1.746,4.015,3.846c0.125,1.432,0.033,3.029-0.171,4.606c0.806-0.516,1.605-1.059,2.395-1.635
			c0.159-0.117,0.316-0.236,0.473-0.356c-0.016-0.319-0.024-0.636-0.016-0.947c0.075-3.029,2.793-5.339,5.792-4.908
			c0.147,0.021,0.297,0.045,0.447,0.07c0.585-0.666,1.144-1.35,1.678-2.049c-1.296-0.622-2.349-1.485-2.94-2.674
			c-2.214-4.463,4.176-10.295,7.112-12.658c0.733,0.701,1.408,1.463,2.017,2.278c0.42-1.948,0.642-3.947,0.642-5.982
			c-0.065-0.059-0.133-0.113-0.198-0.171c-0.131-0.116-0.264-0.23-0.398-0.343c-0.139-0.117-0.28-0.233-0.422-0.347
			c-0.137-0.11-0.275-0.219-0.414-0.325c-0.144-0.111-0.29-0.219-0.437-0.326c-0.142-0.104-0.285-0.206-0.43-0.306
			c-0.15-0.104-0.301-0.205-0.454-0.305c-0.147-0.096-0.294-0.193-0.443-0.286c-0.155-0.097-0.313-0.191-0.471-0.285
			c-0.151-0.089-0.302-0.178-0.454-0.264c-0.161-0.09-0.324-0.177-0.487-0.264c-0.154-0.082-0.309-0.164-0.465-0.242
			c-0.166-0.083-0.335-0.163-0.504-0.242c-0.158-0.074-0.315-0.149-0.475-0.219c-0.172-0.076-0.346-0.148-0.52-0.219
			c-0.16-0.066-0.32-0.133-0.482-0.196c-0.178-0.069-0.358-0.132-0.538-0.196c-0.162-0.058-0.324-0.117-0.488-0.172
			c-0.184-0.061-0.37-0.116-0.556-0.172c-0.164-0.05-0.327-0.101-0.492-0.147c-0.19-0.053-0.383-0.1-0.576-0.148
			c-0.164-0.041-0.327-0.084-0.493-0.122c-0.198-0.045-0.398-0.083-0.598-0.122c-0.163-0.032-0.325-0.067-0.489-0.096
			c-0.208-0.036-0.418-0.065-0.627-0.095c-0.159-0.023-0.317-0.05-0.478-0.07c-0.222-0.028-0.446-0.047-0.669-0.068
			c-0.151-0.014-0.301-0.033-0.452-0.044c-0.251-0.019-0.504-0.028-0.757-0.038c-0.126-0.005-0.252-0.015-0.379-0.018
			c-0.381-0.009-0.764-0.01-1.15,0c-1.857,0.048-3.653,0.322-5.37,0.787c-0.206,0.056-0.411,0.115-0.614,0.176
			c-2.482,0.749-4.78,1.908-6.818,3.399c-0.354,0.259-0.698,0.528-1.036,0.807c-0.434,0.358-0.858,0.726-1.264,1.114
			c-0.287,0.275-0.565,0.558-0.837,0.847c-0.891,0.946-1.697,1.969-2.416,3.056c-0.266,0.403-0.525,0.811-0.766,1.231
			c-0.182,0.317-0.356,0.638-0.522,0.964c-1.664,3.259-2.561,6.968-2.461,10.883c0,0.001,0,0.001,0,0.002
			c0.009,0.365,0.029,0.728,0.055,1.088c0.003,0.038,0.005,0.076,0.008,0.113c0.027,0.342,0.062,0.682,0.104,1.02
			c0.007,0.053,0.013,0.106,0.02,0.159c0.043,0.33,0.093,0.657,0.15,0.982c0.01,0.057,0.02,0.113,0.031,0.17
			c0.059,0.324,0.125,0.646,0.198,0.965c0.012,0.051,0.024,0.102,0.036,0.152c0.077,0.325,0.159,0.649,0.25,0.968
			c0.01,0.034,0.02,0.068,0.03,0.102c0.095,0.33,0.196,0.657,0.306,0.981c0.003,0.008,0.005,0.015,0.008,0.023
			c0.11,0.325,0.229,0.645,0.354,0.963c0.015,0.038,0.029,0.076,0.044,0.114c0.12,0.302,0.247,0.6,0.379,0.895
			c0.023,0.05,0.045,0.101,0.068,0.151c0.132,0.288,0.27,0.573,0.413,0.854c0.026,0.052,0.053,0.103,0.08,0.155
			c0.146,0.281,0.296,0.558,0.453,0.832c0.026,0.046,0.053,0.091,0.08,0.137c0.162,0.279,0.33,0.555,0.504,0.826
			c0.019,0.03,0.039,0.06,0.059,0.09c0.178,0.274,0.361,0.545,0.55,0.811c0.01,0.014,0.02,0.028,0.03,0.042
			c0.191,0.268,0.39,0.531,0.593,0.79c0.028,0.036,0.056,0.073,0.085,0.109c0.196,0.247,0.397,0.489,0.602,0.727
			c0.038,0.044,0.076,0.088,0.114,0.132c0.204,0.233,0.412,0.461,0.625,0.685c0.042,0.044,0.083,0.087,0.126,0.131
			c0.216,0.223,0.435,0.443,0.66,0.658c0.039,0.037,0.078,0.074,0.118,0.111c0.233,0.219,0.469,0.434,0.71,0.643
			c0.027,0.023,0.054,0.045,0.081,0.068c0.114,0.098,0.228,0.195,0.344,0.291C242.912,251.359,244.643,250.738,246.349,250.009z
			 M257.299,232.867c0.348,0.467,0.54,1.021,0.555,1.601c0.04,1.547-1.187,2.838-2.734,2.877c-1.137,0.029-2.172-0.624-2.635-1.664
			c-0.151-0.339-0.232-0.699-0.242-1.07c-0.04-1.547,1.187-2.837,2.734-2.877C255.886,231.711,256.754,232.135,257.299,232.867z
			 M255.448,229.323c-4.804,0.217-7.535-7.204-8.596-10.903c2.461-1.353,5.27-2.154,8.266-2.231c3.523-0.09,6.84,0.835,9.672,2.505
			C263.327,222.413,260.058,229.115,255.448,229.323z M243.555,220.744c2.427,2.629,6.858,8.25,5.097,12.642
			c-1.556,3.88-7.245,4.189-11.002,3.937c-0.134-0.816-0.215-1.65-0.237-2.499C237.269,229.245,239.67,224.182,243.555,220.744z"/>
		<path style="fill:#A38ABA;" d="M252.844,234.596c0.007,0.292,0.071,0.575,0.19,0.841c0.365,0.817,1.177,1.33,2.071,1.307
			c1.216-0.031,2.179-1.045,2.148-2.261c-0.012-0.455-0.162-0.89-0.436-1.258c-0.429-0.576-1.111-0.908-1.825-0.89
			C253.776,232.367,252.813,233.381,252.844,234.596z"/>
		<path style="fill:#7C658E;" d="M278.268,233.779c0-0.015-0.002-0.03-0.002-0.045c-0.01-0.383-0.03-0.763-0.059-1.14
			c-0.011-0.137-0.029-0.272-0.042-0.408c-0.024-0.254-0.047-0.509-0.079-0.76c-0.02-0.157-0.048-0.312-0.072-0.469
			c-0.034-0.228-0.066-0.456-0.107-0.682c-0.03-0.164-0.067-0.325-0.1-0.488c-0.044-0.214-0.085-0.429-0.135-0.641
			c-0.039-0.167-0.085-0.33-0.128-0.495c-0.053-0.205-0.104-0.41-0.163-0.613c-0.048-0.165-0.102-0.328-0.153-0.492
			c-0.062-0.198-0.123-0.397-0.19-0.592c-0.056-0.164-0.118-0.325-0.179-0.486c-0.071-0.192-0.141-0.384-0.217-0.573
			c-0.065-0.161-0.135-0.32-0.203-0.479c-0.08-0.186-0.159-0.372-0.243-0.555c-0.073-0.157-0.15-0.312-0.226-0.467
			c-0.089-0.18-0.176-0.361-0.27-0.539c-0.08-0.153-0.164-0.304-0.248-0.455c-0.097-0.175-0.193-0.35-0.295-0.522
			c-0.087-0.149-0.179-0.296-0.27-0.443c-0.105-0.169-0.21-0.338-0.319-0.504c-0.095-0.144-0.192-0.286-0.29-0.427
			c-0.113-0.164-0.226-0.327-0.343-0.488c-0.101-0.139-0.205-0.275-0.309-0.412c-0.12-0.158-0.242-0.315-0.367-0.469
			c-0.108-0.133-0.217-0.265-0.328-0.396c-0.128-0.152-0.257-0.302-0.389-0.45c-0.114-0.128-0.229-0.254-0.346-0.379
			c-0.135-0.145-0.272-0.289-0.411-0.431c-0.119-0.122-0.24-0.242-0.362-0.361c-0.142-0.139-0.286-0.276-0.432-0.411
			c-0.065-0.06-0.127-0.124-0.193-0.183c0,2.035-0.222,4.034-0.642,5.982c2.173,2.908,3.499,6.491,3.599,10.389
			c0.037,1.43-0.094,2.825-0.374,4.169c-2.873,0.049-6.685-0.192-9.414-1.503c-0.534,0.699-1.094,1.383-1.678,2.049
			c3.43,0.58,7.507,2.226,9.846,3.26c-2.534,5.56-7.795,9.649-14.105,10.501c-0.844-2.146-1.825-5.186-1.964-7.976
			c-0.157,0.12-0.315,0.238-0.473,0.356c-0.79,0.576-1.589,1.119-2.395,1.635c-0.274,2.12-0.749,4.203-1.171,5.8
			c-2.032-0.405-3.946-1.152-5.677-2.178c-1.706,0.729-3.436,1.35-5.187,1.872c0.077,0.064,0.158,0.123,0.236,0.186
			c0.121,0.097,0.243,0.194,0.367,0.289c0.155,0.119,0.312,0.235,0.469,0.35c0.124,0.09,0.247,0.18,0.372,0.268
			c0.165,0.115,0.333,0.226,0.501,0.337c0.123,0.081,0.244,0.163,0.369,0.242c0.183,0.116,0.37,0.227,0.557,0.337
			c0.113,0.067,0.224,0.136,0.339,0.202c0.244,0.139,0.492,0.271,0.742,0.401c0.06,0.031,0.119,0.066,0.18,0.097
			c0.31,0.158,0.624,0.308,0.941,0.452c0.105,0.047,0.212,0.09,0.318,0.136c0.217,0.094,0.434,0.188,0.654,0.276
			c0.13,0.052,0.262,0.099,0.393,0.148c0.2,0.075,0.399,0.15,0.602,0.219c0.141,0.048,0.283,0.093,0.425,0.139
			c0.196,0.063,0.393,0.126,0.592,0.184c0.147,0.043,0.295,0.083,0.443,0.123c0.197,0.053,0.395,0.104,0.594,0.152
			c0.151,0.036,0.302,0.071,0.455,0.105c0.2,0.044,0.402,0.085,0.605,0.123c0.152,0.029,0.305,0.057,0.458,0.083
			c0.207,0.035,0.416,0.066,0.625,0.095c0.151,0.021,0.301,0.043,0.453,0.061c0.219,0.026,0.439,0.047,0.66,0.067
			c0.144,0.013,0.287,0.028,0.432,0.039c0.245,0.017,0.492,0.028,0.739,0.037c0.122,0.005,0.244,0.013,0.366,0.016
			c0.37,0.008,0.743,0.009,1.117,0c5.668-0.145,10.793-2.361,14.681-5.899c0.408-0.371,0.807-0.753,1.187-1.152
			C276.033,245.782,278.428,240.045,278.268,233.779z"/>
		<path style="fill:#7D6391;" d="M252.243,234.612c0.009,0.371,0.091,0.731,0.242,1.07c0.464,1.04,1.498,1.693,2.635,1.664
			c1.547-0.04,2.773-1.33,2.734-2.877c-0.015-0.58-0.207-1.134-0.555-1.601c-0.545-0.732-1.413-1.155-2.323-1.132
			C253.43,231.774,252.203,233.065,252.243,234.612z M256.817,233.226c0.273,0.367,0.424,0.802,0.436,1.258
			c0.031,1.215-0.932,2.23-2.148,2.261c-0.894,0.023-1.706-0.49-2.071-1.307c-0.119-0.266-0.183-0.549-0.19-0.841
			c-0.031-1.215,0.932-2.229,2.148-2.261C255.706,232.318,256.388,232.65,256.817,233.226z"/>
		<path style="fill:#AF7631;" d="M71.356,235.092c-0.404-15.806,12.081-28.947,27.887-29.351
			c15.806-0.404,28.947,12.081,29.351,27.887c0.099,3.866-0.575,7.571-1.878,10.97l3.972-0.019c1.185-3.523,1.812-7.179,1.711-11.11
			c-0.013-0.52-0.04-1.036-0.077-1.55c-1.253-17.284-15.89-30.7-33.395-30.252c-16.94,0.434-30.534,13.695-31.726,30.252
			c-0.076,1.061-0.103,2.135-0.075,3.22c0.099,3.85,0.726,6.181,2.033,9.524c0.027,0.07,0.053,0.138,0.081,0.209l4.091-0.02
			C72.137,241.822,71.444,238.536,71.356,235.092z"/>
		<path style="fill:#3E2E49;" d="M128.594,233.628c-0.404-15.806-13.546-28.291-29.351-27.887
			c-15.806,0.404-28.291,13.545-27.887,29.351c0.088,3.444,0.781,6.73,1.975,9.76c4.283,10.875,15.015,18.443,27.376,18.127
			c11.916-0.305,21.943-7.849,25.984-18.316c0.008-0.022,0.016-0.043,0.025-0.065C128.019,241.198,128.693,237.493,128.594,233.628z
			 M115.236,251.145c-3.888,3.538-9.013,5.754-14.681,5.899c-0.375,0.009-0.747,0.009-1.118,0c-0.123-0.003-0.244-0.011-0.366-0.016
			c-0.247-0.01-0.494-0.02-0.739-0.037c-0.145-0.01-0.288-0.026-0.432-0.039c-0.221-0.02-0.441-0.04-0.66-0.067
			c-0.152-0.018-0.302-0.04-0.453-0.061c-0.209-0.029-0.418-0.06-0.625-0.095c-0.153-0.026-0.306-0.055-0.458-0.083
			c-0.202-0.039-0.404-0.08-0.605-0.123c-0.152-0.033-0.304-0.068-0.455-0.105c-0.199-0.048-0.397-0.099-0.594-0.152
			c-0.148-0.04-0.296-0.08-0.444-0.123c-0.199-0.058-0.395-0.12-0.592-0.184c-0.142-0.046-0.284-0.09-0.425-0.139
			c-0.202-0.069-0.402-0.144-0.602-0.219c-0.131-0.049-0.263-0.096-0.393-0.148c-0.22-0.087-0.437-0.181-0.654-0.276
			c-0.105-0.046-0.213-0.089-0.318-0.136c-0.318-0.144-0.632-0.294-0.941-0.452c-0.061-0.031-0.12-0.065-0.18-0.097
			c-0.249-0.13-0.497-0.262-0.741-0.401c-0.114-0.065-0.226-0.135-0.339-0.202c-0.187-0.111-0.374-0.221-0.557-0.337
			c-0.124-0.079-0.246-0.161-0.369-0.242c-0.168-0.111-0.336-0.222-0.501-0.337c-0.126-0.088-0.249-0.178-0.373-0.268
			c-0.158-0.115-0.314-0.231-0.469-0.35c-0.124-0.095-0.245-0.192-0.367-0.289c-0.078-0.063-0.159-0.122-0.236-0.186
			c-0.116-0.096-0.23-0.193-0.344-0.291c-0.027-0.023-0.054-0.045-0.08-0.068c-0.242-0.209-0.478-0.424-0.711-0.644
			c-0.039-0.037-0.079-0.073-0.118-0.111c-0.225-0.215-0.445-0.434-0.66-0.658c-0.042-0.044-0.084-0.087-0.125-0.131
			c-0.213-0.224-0.422-0.453-0.625-0.686c-0.038-0.044-0.076-0.088-0.114-0.132c-0.205-0.238-0.407-0.481-0.603-0.728
			c-0.028-0.036-0.056-0.072-0.084-0.108c-0.203-0.26-0.402-0.523-0.594-0.791c-0.01-0.014-0.019-0.027-0.029-0.041
			c-0.189-0.266-0.373-0.538-0.551-0.813c-0.019-0.03-0.039-0.059-0.058-0.089c-0.174-0.271-0.341-0.547-0.504-0.827
			c-0.027-0.046-0.054-0.091-0.08-0.137c-0.157-0.274-0.308-0.551-0.453-0.832c-0.027-0.052-0.053-0.103-0.08-0.155
			c-0.143-0.282-0.281-0.566-0.413-0.855c-0.023-0.05-0.045-0.1-0.067-0.15c-0.132-0.295-0.26-0.594-0.38-0.895
			c-0.015-0.038-0.029-0.076-0.044-0.114c-0.125-0.318-0.243-0.638-0.354-0.963c-0.003-0.008-0.005-0.016-0.007-0.023
			c-0.11-0.324-0.211-0.651-0.306-0.981c-0.01-0.034-0.021-0.068-0.03-0.102c-0.09-0.32-0.173-0.643-0.25-0.968
			c-0.012-0.051-0.024-0.101-0.036-0.152c-0.073-0.319-0.139-0.641-0.198-0.965c-0.01-0.057-0.021-0.113-0.031-0.17
			c-0.057-0.325-0.107-0.652-0.15-0.982c-0.007-0.053-0.013-0.106-0.02-0.159c-0.042-0.338-0.077-0.678-0.104-1.02
			c-0.003-0.038-0.005-0.076-0.008-0.113c-0.026-0.36-0.046-0.723-0.055-1.088c0-0.001,0-0.001,0-0.002
			c-0.1-3.915,0.798-7.624,2.461-10.883c0.166-0.326,0.34-0.647,0.522-0.964c0.241-0.42,0.499-0.829,0.766-1.231
			c0.719-1.087,1.525-2.111,2.416-3.056c0.272-0.289,0.55-0.573,0.837-0.847c0.406-0.388,0.83-0.757,1.264-1.114
			c0.338-0.278,0.682-0.548,1.036-0.807c2.038-1.492,4.336-2.651,6.818-3.399c0.204-0.061,0.408-0.12,0.615-0.176
			c1.716-0.465,3.513-0.739,5.37-0.787c0.385-0.01,0.769-0.01,1.15,0c0.127,0.003,0.252,0.013,0.379,0.018
			c0.253,0.01,0.506,0.02,0.757,0.038c0.152,0.011,0.301,0.03,0.452,0.044c0.223,0.021,0.448,0.04,0.669,0.068
			c0.16,0.02,0.318,0.047,0.478,0.07c0.209,0.031,0.42,0.059,0.627,0.095c0.164,0.029,0.326,0.064,0.489,0.096
			c0.2,0.039,0.4,0.077,0.598,0.122c0.165,0.037,0.329,0.081,0.493,0.122c0.192,0.048,0.385,0.095,0.575,0.148
			c0.165,0.046,0.328,0.097,0.492,0.147c0.186,0.056,0.372,0.112,0.556,0.172c0.164,0.054,0.326,0.113,0.488,0.172
			c0.18,0.064,0.36,0.128,0.538,0.196c0.162,0.063,0.322,0.13,0.482,0.196c0.174,0.072,0.348,0.143,0.52,0.219
			c0.16,0.071,0.317,0.145,0.475,0.219c0.169,0.079,0.337,0.158,0.503,0.242c0.157,0.078,0.311,0.16,0.466,0.242
			c0.163,0.087,0.326,0.173,0.487,0.264c0.153,0.086,0.304,0.175,0.455,0.264c0.158,0.093,0.315,0.188,0.47,0.285
			c0.149,0.093,0.296,0.189,0.443,0.286c0.152,0.1,0.304,0.202,0.454,0.305c0.145,0.1,0.287,0.203,0.43,0.306
			c0.147,0.107,0.293,0.215,0.437,0.326c0.139,0.107,0.278,0.215,0.414,0.325c0.142,0.114,0.282,0.23,0.422,0.347
			c0.134,0.113,0.266,0.227,0.398,0.343c0.066,0.058,0.134,0.112,0.198,0.171c0.066,0.06,0.128,0.123,0.193,0.183
			c0.146,0.135,0.29,0.272,0.432,0.411c0.122,0.119,0.243,0.239,0.362,0.361c0.139,0.142,0.276,0.286,0.411,0.431
			c0.117,0.125,0.232,0.252,0.346,0.379c0.132,0.148,0.261,0.298,0.389,0.45c0.11,0.131,0.22,0.263,0.328,0.396
			c0.125,0.154,0.246,0.311,0.367,0.469c0.104,0.136,0.208,0.273,0.309,0.412c0.117,0.161,0.231,0.324,0.344,0.488
			c0.098,0.142,0.195,0.283,0.29,0.427c0.109,0.166,0.215,0.335,0.319,0.505c0.091,0.147,0.182,0.293,0.269,0.441
			c0.101,0.172,0.198,0.347,0.295,0.523c0.084,0.151,0.168,0.302,0.248,0.455c0.093,0.178,0.181,0.358,0.27,0.539
			c0.076,0.155,0.153,0.31,0.226,0.467c0.085,0.184,0.164,0.37,0.244,0.556c0.068,0.159,0.138,0.317,0.203,0.477
			c0.076,0.19,0.146,0.382,0.217,0.574c0.06,0.162,0.122,0.322,0.178,0.486c0.067,0.196,0.128,0.394,0.19,0.592
			c0.052,0.164,0.106,0.327,0.153,0.492c0.059,0.203,0.11,0.409,0.163,0.614c0.043,0.164,0.088,0.327,0.127,0.493
			c0.05,0.212,0.092,0.428,0.135,0.643c0.033,0.162,0.07,0.323,0.1,0.487c0.041,0.225,0.073,0.454,0.107,0.682
			c0.023,0.156,0.051,0.311,0.072,0.469c0.032,0.251,0.055,0.506,0.079,0.76c0.013,0.136,0.031,0.271,0.042,0.408
			c0.029,0.377,0.048,0.758,0.059,1.14c0,0.015,0.002,0.03,0.002,0.045c0.16,6.266-2.235,12.003-6.236,16.213
			C116.043,250.392,115.645,250.774,115.236,251.145z"/>
		<path style="fill:#664D77;" d="M84.419,250.878c-0.039-0.037-0.079-0.073-0.118-0.111C84.34,250.804,84.38,250.841,84.419,250.878
			z"/>
		<path style="fill:#664D77;" d="M115.236,251.145c0.408-0.371,0.807-0.753,1.187-1.152
			C116.043,250.392,115.645,250.774,115.236,251.145z"/>
		<path style="fill:#664D77;" d="M93.017,255.96c-0.142-0.046-0.284-0.09-0.425-0.139C92.732,255.869,92.875,255.914,93.017,255.96z
			"/>
		<path style="fill:#664D77;" d="M91.99,255.601c-0.131-0.049-0.263-0.096-0.393-0.148C91.727,255.505,91.859,255.552,91.99,255.601
			z"/>
		<path style="fill:#664D77;" d="M90.943,255.177c-0.105-0.046-0.213-0.089-0.318-0.136
			C90.731,255.089,90.838,255.132,90.943,255.177z"/>
		<path style="fill:#664D77;" d="M89.684,254.589c-0.061-0.031-0.119-0.065-0.18-0.097
			C89.565,254.524,89.624,254.558,89.684,254.589z"/>
		<path style="fill:#664D77;" d="M95.101,256.523c-0.152-0.033-0.304-0.068-0.455-0.105
			C94.797,256.455,94.948,256.49,95.101,256.523z"/>
		<path style="fill:#664D77;" d="M96.163,256.73c-0.153-0.026-0.306-0.055-0.458-0.083C95.858,256.676,96.01,256.704,96.163,256.73z
			"/>
		<path style="fill:#664D77;" d="M98.333,256.992c-0.145-0.01-0.288-0.026-0.432-0.039
			C98.045,256.966,98.188,256.982,98.333,256.992z"/>
		<path style="fill:#664D77;" d="M99.438,257.045c-0.123-0.003-0.244-0.011-0.366-0.016
			C99.194,257.034,99.316,257.042,99.438,257.045z"/>
		<path style="fill:#664D77;" d="M97.241,256.887c-0.152-0.018-0.302-0.04-0.453-0.061C96.939,256.846,97.09,256.868,97.241,256.887
			z"/>
		<path style="fill:#664D77;" d="M94.052,256.266c-0.148-0.04-0.296-0.08-0.444-0.123C93.756,256.186,93.904,256.226,94.052,256.266
			z"/>
		<path style="fill:#664D77;" d="M83.641,250.109c-0.042-0.044-0.084-0.087-0.125-0.131
			C83.557,250.022,83.599,250.066,83.641,250.109z"/>
		<path style="fill:#664D77;" d="M82.89,249.293c-0.038-0.044-0.076-0.088-0.114-0.132C82.814,249.205,82.852,249.249,82.89,249.293
			z"/>
		<path style="fill:#664D77;" d="M82.174,248.434c-0.028-0.036-0.056-0.072-0.084-0.108
			C82.118,248.361,82.146,248.398,82.174,248.434z"/>
		<path style="fill:#664D77;" d="M80.355,245.765c-0.027-0.046-0.054-0.091-0.08-0.137C80.301,245.675,80.328,245.72,80.355,245.765
			z"/>
		<path style="fill:#664D77;" d="M88.763,254.091c-0.114-0.065-0.226-0.135-0.339-0.202
			C88.537,253.956,88.649,254.026,88.763,254.091z"/>
		<path style="fill:#664D77;" d="M81.496,247.534c-0.01-0.014-0.019-0.027-0.029-0.041
			C81.477,247.507,81.487,247.521,81.496,247.534z"/>
		<path style="fill:#664D77;" d="M87.867,253.552c-0.124-0.079-0.246-0.161-0.369-0.242
			C87.621,253.391,87.743,253.474,87.867,253.552z"/>
		<path style="fill:#664D77;" d="M85.209,251.589c-0.027-0.023-0.054-0.045-0.08-0.068
			C85.156,251.544,85.183,251.566,85.209,251.589z"/>
		<path style="fill:#664D77;" d="M86.998,252.973c-0.126-0.088-0.249-0.178-0.373-0.268
			C86.749,252.795,86.872,252.885,86.998,252.973z"/>
		<path style="fill:#664D77;" d="M86.156,252.355c-0.124-0.095-0.245-0.192-0.367-0.289
			C85.911,252.164,86.033,252.26,86.156,252.355z"/>
		<path style="fill:#664D77;" d="M80.917,246.681c-0.019-0.03-0.039-0.059-0.058-0.089
			C80.878,246.622,80.898,246.651,80.917,246.681z"/>
		<path style="fill:#664D77;" d="M114.594,217.01c0.134,0.113,0.266,0.227,0.398,0.343
			C114.86,217.237,114.727,217.123,114.594,217.01z"/>
		<path style="fill:#664D77;" d="M80.273,223.093c0.241-0.42,0.499-0.829,0.766-1.231C80.773,222.265,80.514,222.673,80.273,223.093
			z"/>
		<path style="fill:#664D77;" d="M113.757,216.337c0.139,0.107,0.278,0.215,0.414,0.325
			C114.035,216.553,113.897,216.444,113.757,216.337z"/>
		<path style="fill:#664D77;" d="M112.891,215.705c0.144,0.1,0.287,0.203,0.43,0.306
			C113.178,215.908,113.035,215.805,112.891,215.705z"/>
		<path style="fill:#664D77;" d="M85.557,216.844c0.338-0.278,0.682-0.548,1.036-0.807
			C86.239,216.296,85.894,216.566,85.557,216.844z"/>
		<path style="fill:#664D77;" d="M83.455,218.806c0.272-0.289,0.55-0.573,0.837-0.847C84.006,218.233,83.728,218.517,83.455,218.806
			z"/>
		<path style="fill:#664D77;" d="M117.651,220.135c0.125,0.154,0.246,0.312,0.367,0.469
			C117.897,220.447,117.776,220.29,117.651,220.135z"/>
		<path style="fill:#664D77;" d="M118.327,221.016c0.117,0.161,0.231,0.324,0.344,0.488
			C118.558,221.34,118.444,221.177,118.327,221.016z"/>
		<path style="fill:#664D77;" d="M93.41,212.638c0.204-0.061,0.408-0.12,0.615-0.176C93.819,212.518,93.614,212.577,93.41,212.638z"
			/>
		<path style="fill:#664D77;" d="M116.934,219.289c0.132,0.148,0.261,0.298,0.389,0.45
			C117.195,219.588,117.066,219.437,116.934,219.289z"/>
		<path style="fill:#664D77;" d="M116.177,218.479c0.139,0.142,0.276,0.286,0.411,0.431
			C116.453,218.764,116.316,218.621,116.177,218.479z"/>
		<path style="fill:#664D77;" d="M115.382,217.707c0.146,0.135,0.29,0.272,0.432,0.411
			C115.673,217.979,115.528,217.842,115.382,217.707z"/>
		<path style="fill:#664D77;" d="M102.801,211.843c0.16,0.02,0.318,0.047,0.478,0.07
			C103.12,211.889,102.962,211.863,102.801,211.843z"/>
		<path style="fill:#664D77;" d="M108.135,213.183c0.162,0.063,0.322,0.13,0.482,0.196
			C108.457,213.312,108.298,213.245,108.135,213.183z"/>
		<path style="fill:#664D77;" d="M109.138,213.598c0.16,0.071,0.317,0.145,0.475,0.219
			C109.455,213.743,109.298,213.668,109.138,213.598z"/>
		<path style="fill:#664D77;" d="M100.544,211.675c0.127,0.003,0.252,0.013,0.379,0.018
			C100.797,211.688,100.671,211.678,100.544,211.675z"/>
		<path style="fill:#664D77;" d="M111.994,215.114c0.149,0.093,0.296,0.189,0.443,0.286
			C112.29,215.303,112.143,215.207,111.994,215.114z"/>
		<path style="fill:#664D77;" d="M107.11,212.815c0.164,0.054,0.326,0.113,0.488,0.172
			C107.435,212.928,107.274,212.869,107.11,212.815z"/>
		<path style="fill:#664D77;" d="M111.069,214.565c0.153,0.086,0.304,0.175,0.455,0.264
			C111.373,214.74,111.222,214.651,111.069,214.565z"/>
		<path style="fill:#664D77;" d="M118.96,221.931c0.109,0.166,0.215,0.336,0.319,0.505
			C119.174,222.267,119.069,222.098,118.96,221.931z"/>
		<path style="fill:#664D77;" d="M101.68,211.731c0.152,0.011,0.301,0.03,0.452,0.044
			C101.981,211.761,101.832,211.742,101.68,211.731z"/>
		<path style="fill:#664D77;" d="M103.906,212.008c0.164,0.029,0.326,0.064,0.489,0.096
			C104.232,212.072,104.071,212.037,103.906,212.008z"/>
		<path style="fill:#664D77;" d="M104.993,212.226c0.165,0.037,0.329,0.081,0.493,0.122
			C105.322,212.307,105.159,212.264,104.993,212.226z"/>
		<path style="fill:#664D77;" d="M106.062,212.495c0.165,0.046,0.328,0.097,0.492,0.147
			C106.39,212.593,106.227,212.542,106.062,212.495z"/>
		<path style="fill:#664D77;" d="M110.116,214.059c0.157,0.078,0.311,0.16,0.466,0.242
			C110.427,214.219,110.273,214.137,110.116,214.059z"/>
		<path style="fill:#664D77;" d="M121.773,228.039c0.059,0.203,0.11,0.409,0.163,0.614
			C121.883,228.448,121.831,228.242,121.773,228.039z"/>
		<path style="fill:#664D77;" d="M122.063,229.147c0.05,0.212,0.092,0.428,0.135,0.643
			C122.155,229.575,122.113,229.359,122.063,229.147z"/>
		<path style="fill:#664D77;" d="M121.429,226.955c0.067,0.196,0.128,0.395,0.19,0.592
			C121.557,227.349,121.496,227.151,121.429,226.955z"/>
		<path style="fill:#664D77;" d="M122.299,230.276c0.041,0.225,0.073,0.454,0.107,0.682
			C122.372,230.73,122.34,230.501,122.299,230.276z"/>
		<path style="fill:#664D77;" d="M119.548,222.878c0.101,0.172,0.198,0.348,0.295,0.523
			C119.746,223.225,119.65,223.05,119.548,222.878z"/>
		<path style="fill:#664D77;" d="M121.033,225.895c0.076,0.19,0.146,0.382,0.217,0.574
			C121.179,226.277,121.109,226.085,121.033,225.895z"/>
		<path style="fill:#664D77;" d="M120.587,224.861c0.085,0.183,0.164,0.37,0.244,0.556
			C120.75,225.231,120.671,225.045,120.587,224.861z"/>
		<path style="fill:#664D77;" d="M120.091,223.855c0.093,0.178,0.181,0.358,0.27,0.539
			C120.272,224.214,120.184,224.033,120.091,223.855z"/>
		<path style="fill:#664D77;" d="M79.742,244.642c0.026,0.052,0.053,0.103,0.08,0.155C79.795,244.745,79.769,244.694,79.742,244.642
			z"/>
		<path style="fill:#664D77;" d="M79.329,243.787c-0.023-0.05-0.045-0.1-0.067-0.15C79.284,243.687,79.306,243.737,79.329,243.787z"
			/>
		<path style="fill:#664D77;" d="M78.171,240.662c-0.01-0.034-0.021-0.068-0.03-0.102C78.151,240.594,78.162,240.628,78.171,240.662
			z"/>
		<path style="fill:#664D77;" d="M77.892,239.591c-0.012-0.051-0.024-0.101-0.036-0.152C77.867,239.49,77.88,239.54,77.892,239.591z
			"/>
		<path style="fill:#664D77;" d="M77.658,238.474c-0.01-0.057-0.021-0.113-0.031-0.17C77.637,238.361,77.647,238.417,77.658,238.474
			z"/>
		<path style="fill:#664D77;" d="M78.485,241.665c-0.003-0.008-0.005-0.016-0.007-0.023C78.48,241.65,78.482,241.658,78.485,241.665
			z"/>
		<path style="fill:#664D77;" d="M77.477,237.322c-0.007-0.053-0.013-0.106-0.02-0.159C77.464,237.216,77.47,237.269,77.477,237.322
			z"/>
		<path style="fill:#664D77;" d="M78.882,242.742c-0.015-0.038-0.029-0.076-0.044-0.114
			C78.853,242.666,78.867,242.704,78.882,242.742z"/>
		<path style="fill:#664D77;" d="M77.353,236.143c-0.003-0.038-0.005-0.076-0.008-0.113
			C77.348,236.068,77.35,236.105,77.353,236.143z"/>
		<path style="fill:#664D77;" d="M122.599,232.594c0.029,0.377,0.048,0.758,0.059,1.14
			C122.647,233.352,122.628,232.972,122.599,232.594z"/>
		<path style="fill:#664D77;" d="M79.752,224.057c-1.664,3.259-2.562,6.968-2.461,10.883c0,0.001,0,0.001,0,0.002
			c0-0.001,0-0.001,0-0.002C77.19,231.025,78.088,227.316,79.752,224.057z"/>
		<path style="fill:#664D77;" d="M122.557,232.187c-0.024-0.254-0.047-0.509-0.079-0.76
			C122.51,231.678,122.533,231.932,122.557,232.187z"/>
		<path style="fill:#664D77;" d="M99.51,216.189c-2.995,0.077-5.805,0.878-8.266,2.231c1.06,3.699,3.791,11.12,8.595,10.903
			c4.61-0.209,7.879-6.91,9.343-10.629C106.35,217.023,103.033,216.099,99.51,216.189z"/>
		<path style="fill:#543D66;" d="M96.418,252.187c0.422-1.597,0.897-3.681,1.171-5.8c-2.227,1.425-4.514,2.624-6.848,3.622
			C92.472,251.035,94.386,251.781,96.418,252.187z"/>
		<path style="fill:#664D77;" d="M97.76,241.781c-0.184-2.1-1.909-3.765-4.015-3.846c-3.541-0.136-7.893,1.88-10.574,3.354
			c1.517,3.667,4.198,6.723,7.57,8.72c2.334-0.998,4.621-2.197,6.848-3.622C97.792,244.81,97.885,243.213,97.76,241.781z"/>
		<path style="fill:#664D77;" d="M100.441,243.448c-0.008,0.311,0,0.628,0.016,0.947c2.275-1.732,4.37-3.673,6.223-5.785
			c-0.15-0.025-0.299-0.049-0.447-0.07C103.234,238.11,100.516,240.42,100.441,243.448z"/>
		<path style="fill:#543D66;" d="M100.457,244.396c0.139,2.79,1.12,5.829,1.964,7.976c6.31-0.852,11.571-4.94,14.105-10.501
			c-2.339-1.034-6.416-2.681-9.845-3.26C104.827,240.723,102.732,242.664,100.457,244.396z"/>
		<path style="fill:#543D66;" d="M108.358,236.561c2.729,1.31,6.541,1.551,9.414,1.503c0.279-1.343,0.41-2.739,0.374-4.169
			c-0.1-3.897-1.426-7.48-3.599-10.389C113.53,228.222,111.353,232.641,108.358,236.561z"/>
		<path style="fill:#664D77;" d="M112.531,221.229c-2.936,2.363-9.326,8.195-7.112,12.658c0.59,1.189,1.643,2.052,2.939,2.674
			c2.995-3.92,5.172-8.339,6.189-13.055C113.939,222.691,113.264,221.93,112.531,221.229z"/>
		<path style="fill:#664D77;" d="M82.041,237.324c3.757,0.252,9.446-0.057,11.002-3.937c1.762-4.392-2.67-10.013-5.096-12.642
			c-3.885,3.438-6.286,8.501-6.143,14.081C81.826,235.674,81.907,236.508,82.041,237.324z"/>
		<path style="fill:#A38ABA;" d="M90.741,250.009c-3.371-1.997-6.053-5.053-7.57-8.72c2.68-1.474,7.032-3.49,10.574-3.354
			c2.107,0.081,3.831,1.746,4.015,3.846c0.126,1.432,0.033,3.029-0.171,4.606c0.806-0.516,1.605-1.059,2.395-1.635
			c0.159-0.117,0.316-0.236,0.473-0.356c-0.016-0.319-0.023-0.636-0.016-0.947c0.075-3.029,2.793-5.339,5.792-4.908
			c0.147,0.021,0.297,0.045,0.447,0.07c0.584-0.666,1.144-1.35,1.678-2.049c-1.296-0.622-2.349-1.485-2.939-2.674
			c-2.214-4.463,4.175-10.295,7.112-12.658c0.733,0.701,1.408,1.463,2.017,2.278c0.42-1.948,0.642-3.947,0.642-5.982
			c-0.065-0.059-0.133-0.113-0.198-0.171c-0.131-0.116-0.264-0.23-0.398-0.343c-0.139-0.117-0.28-0.233-0.422-0.347
			c-0.137-0.11-0.275-0.219-0.414-0.325c-0.144-0.111-0.29-0.219-0.437-0.326c-0.142-0.104-0.285-0.206-0.43-0.306
			c-0.15-0.104-0.301-0.205-0.454-0.305c-0.147-0.096-0.294-0.193-0.443-0.286c-0.155-0.097-0.313-0.191-0.47-0.285
			c-0.151-0.089-0.302-0.178-0.455-0.264c-0.161-0.09-0.324-0.177-0.487-0.264c-0.155-0.082-0.309-0.164-0.466-0.242
			c-0.166-0.083-0.335-0.163-0.503-0.242c-0.158-0.074-0.315-0.149-0.475-0.219c-0.172-0.076-0.346-0.147-0.52-0.219
			c-0.16-0.066-0.32-0.133-0.482-0.196c-0.178-0.069-0.358-0.132-0.538-0.196c-0.162-0.058-0.324-0.117-0.488-0.172
			c-0.184-0.061-0.37-0.116-0.556-0.172c-0.164-0.05-0.327-0.101-0.492-0.147c-0.19-0.053-0.383-0.1-0.575-0.148
			c-0.164-0.041-0.327-0.084-0.493-0.122c-0.198-0.045-0.398-0.083-0.598-0.122c-0.163-0.032-0.325-0.067-0.489-0.096
			c-0.208-0.036-0.418-0.065-0.627-0.095c-0.159-0.023-0.317-0.05-0.478-0.07c-0.222-0.028-0.446-0.047-0.669-0.068
			c-0.151-0.014-0.301-0.033-0.452-0.044c-0.251-0.019-0.504-0.028-0.757-0.038c-0.127-0.005-0.252-0.015-0.379-0.018
			c-0.381-0.009-0.764-0.01-1.15,0c-1.857,0.048-3.653,0.322-5.37,0.787c-0.206,0.056-0.411,0.115-0.615,0.176
			c-2.482,0.749-4.78,1.908-6.818,3.399c-0.354,0.259-0.698,0.528-1.036,0.807c-0.434,0.358-0.858,0.726-1.264,1.114
			c-0.287,0.275-0.565,0.558-0.837,0.847c-0.891,0.946-1.698,1.969-2.416,3.056c-0.266,0.403-0.525,0.811-0.766,1.231
			c-0.181,0.317-0.355,0.638-0.522,0.964c-1.664,3.259-2.562,6.968-2.461,10.883c0,0.001,0,0.001,0,0.002
			c0.009,0.365,0.029,0.728,0.055,1.088c0.003,0.038,0.005,0.076,0.008,0.113c0.027,0.342,0.062,0.682,0.104,1.02
			c0.007,0.053,0.013,0.106,0.02,0.159c0.043,0.33,0.093,0.657,0.15,0.982c0.01,0.057,0.02,0.113,0.031,0.17
			c0.059,0.324,0.125,0.646,0.198,0.965c0.012,0.051,0.024,0.102,0.036,0.152c0.077,0.325,0.159,0.649,0.25,0.968
			c0.01,0.034,0.02,0.068,0.03,0.102c0.095,0.33,0.196,0.657,0.306,0.981c0.003,0.008,0.005,0.015,0.007,0.023
			c0.11,0.325,0.229,0.645,0.354,0.963c0.015,0.038,0.029,0.076,0.044,0.114c0.12,0.302,0.247,0.6,0.38,0.895
			c0.022,0.05,0.045,0.1,0.067,0.15c0.132,0.288,0.27,0.573,0.413,0.855c0.026,0.052,0.053,0.103,0.08,0.155
			c0.146,0.281,0.297,0.558,0.453,0.832c0.026,0.046,0.053,0.091,0.08,0.137c0.163,0.279,0.33,0.555,0.504,0.827
			c0.019,0.03,0.039,0.059,0.058,0.089c0.178,0.275,0.361,0.546,0.551,0.813c0.01,0.014,0.019,0.027,0.029,0.041
			c0.192,0.268,0.391,0.531,0.594,0.791c0.028,0.036,0.056,0.072,0.084,0.108c0.196,0.247,0.397,0.489,0.603,0.728
			c0.038,0.044,0.076,0.088,0.114,0.132c0.204,0.233,0.412,0.461,0.625,0.686c0.042,0.044,0.083,0.087,0.125,0.131
			c0.216,0.223,0.436,0.443,0.66,0.658c0.039,0.037,0.078,0.074,0.118,0.111c0.233,0.219,0.469,0.434,0.711,0.644
			c0.026,0.023,0.053,0.045,0.08,0.068c0.114,0.098,0.228,0.196,0.344,0.291C87.304,251.359,89.035,250.738,90.741,250.009z
			 M101.691,232.867c0.348,0.467,0.54,1.021,0.554,1.601c0.04,1.547-1.187,2.838-2.733,2.877c-1.137,0.029-2.172-0.624-2.635-1.664
			c-0.151-0.339-0.232-0.699-0.242-1.07c-0.039-1.547,1.187-2.837,2.734-2.877C100.277,231.711,101.146,232.135,101.691,232.867z
			 M99.84,229.323c-4.804,0.217-7.535-7.204-8.595-10.903c2.461-1.353,5.27-2.154,8.266-2.231c3.523-0.09,6.84,0.835,9.672,2.505
			C107.718,222.413,104.45,229.115,99.84,229.323z M87.947,220.744c2.427,2.629,6.858,8.25,5.096,12.642
			c-1.556,3.88-7.245,4.189-11.002,3.937c-0.134-0.816-0.215-1.65-0.237-2.499C81.661,229.245,84.062,224.182,87.947,220.744z"/>
		<path style="fill:#A38ABA;" d="M97.236,234.596c0.007,0.292,0.071,0.575,0.19,0.841c0.365,0.817,1.177,1.33,2.071,1.307
			c1.215-0.031,2.179-1.045,2.148-2.261c-0.012-0.455-0.162-0.89-0.436-1.258c-0.429-0.576-1.111-0.908-1.825-0.89
			C98.168,232.367,97.205,233.381,97.236,234.596z"/>
		<path style="fill:#7C658E;" d="M122.66,233.779c0-0.015-0.002-0.03-0.002-0.045c-0.01-0.383-0.03-0.763-0.059-1.14
			c-0.011-0.137-0.029-0.272-0.042-0.408c-0.024-0.254-0.047-0.509-0.079-0.76c-0.02-0.157-0.048-0.312-0.072-0.469
			c-0.034-0.228-0.066-0.456-0.107-0.682c-0.03-0.164-0.067-0.324-0.1-0.487c-0.044-0.215-0.086-0.43-0.135-0.643
			c-0.039-0.166-0.085-0.329-0.127-0.493c-0.053-0.205-0.104-0.411-0.163-0.614c-0.048-0.165-0.102-0.328-0.153-0.492
			c-0.062-0.198-0.123-0.397-0.19-0.592c-0.056-0.164-0.118-0.324-0.178-0.486c-0.071-0.192-0.141-0.385-0.217-0.574
			c-0.065-0.161-0.134-0.319-0.203-0.477c-0.08-0.186-0.159-0.373-0.244-0.556c-0.073-0.157-0.15-0.312-0.226-0.467
			c-0.088-0.18-0.177-0.361-0.27-0.539c-0.08-0.153-0.164-0.304-0.248-0.455c-0.097-0.175-0.194-0.35-0.295-0.523
			c-0.088-0.149-0.178-0.295-0.269-0.441c-0.105-0.169-0.21-0.339-0.319-0.505c-0.094-0.144-0.192-0.286-0.29-0.427
			c-0.113-0.164-0.226-0.327-0.344-0.488c-0.101-0.139-0.205-0.275-0.309-0.412c-0.121-0.158-0.242-0.315-0.367-0.469
			c-0.108-0.133-0.217-0.265-0.328-0.396c-0.128-0.152-0.257-0.302-0.389-0.45c-0.114-0.128-0.229-0.254-0.346-0.379
			c-0.135-0.145-0.272-0.289-0.411-0.431c-0.119-0.122-0.24-0.242-0.362-0.361c-0.142-0.139-0.286-0.276-0.432-0.411
			c-0.065-0.06-0.127-0.124-0.193-0.183c0,2.035-0.222,4.034-0.642,5.982c2.173,2.908,3.499,6.491,3.599,10.389
			c0.037,1.43-0.094,2.825-0.374,4.169c-2.873,0.049-6.685-0.192-9.414-1.503c-0.534,0.699-1.094,1.383-1.678,2.049
			c3.43,0.58,7.507,2.226,9.845,3.26c-2.534,5.56-7.795,9.649-14.105,10.501c-0.844-2.146-1.825-5.186-1.964-7.976
			c-0.157,0.12-0.315,0.238-0.473,0.356c-0.79,0.576-1.588,1.119-2.395,1.635c-0.274,2.12-0.749,4.203-1.171,5.8
			c-2.032-0.405-3.946-1.152-5.677-2.178c-1.706,0.729-3.436,1.35-5.187,1.872c0.077,0.064,0.158,0.123,0.236,0.186
			c0.122,0.097,0.243,0.194,0.367,0.289c0.154,0.119,0.311,0.235,0.469,0.35c0.124,0.09,0.247,0.18,0.373,0.268
			c0.165,0.115,0.333,0.226,0.501,0.337c0.123,0.081,0.244,0.163,0.369,0.242c0.183,0.116,0.37,0.227,0.557,0.337
			c0.113,0.067,0.224,0.136,0.339,0.202c0.244,0.139,0.492,0.271,0.741,0.401c0.061,0.031,0.119,0.066,0.18,0.097
			c0.31,0.158,0.624,0.308,0.941,0.452c0.105,0.047,0.212,0.09,0.318,0.136c0.217,0.094,0.434,0.188,0.654,0.276
			c0.13,0.052,0.262,0.099,0.393,0.148c0.2,0.075,0.4,0.15,0.602,0.219c0.141,0.048,0.283,0.093,0.425,0.139
			c0.196,0.063,0.393,0.126,0.592,0.184c0.147,0.043,0.295,0.083,0.444,0.123c0.197,0.053,0.395,0.104,0.594,0.152
			c0.151,0.036,0.303,0.071,0.455,0.105c0.201,0.044,0.402,0.085,0.605,0.123c0.152,0.029,0.305,0.057,0.458,0.083
			c0.207,0.035,0.416,0.066,0.625,0.095c0.151,0.021,0.301,0.043,0.453,0.061c0.219,0.026,0.439,0.047,0.66,0.067
			c0.144,0.013,0.287,0.028,0.432,0.039c0.245,0.017,0.492,0.028,0.739,0.037c0.122,0.005,0.244,0.013,0.366,0.016
			c0.371,0.008,0.743,0.009,1.118,0c5.668-0.145,10.793-2.361,14.681-5.899c0.408-0.371,0.807-0.753,1.187-1.152
			C120.425,245.782,122.82,240.045,122.66,233.779z"/>
		<path style="fill:#7D6391;" d="M96.635,234.612c0.01,0.371,0.091,0.731,0.242,1.07c0.464,1.04,1.498,1.693,2.635,1.664
			c1.547-0.04,2.773-1.33,2.733-2.877c-0.015-0.58-0.206-1.134-0.554-1.601c-0.545-0.732-1.413-1.155-2.323-1.132
			C97.821,231.774,96.595,233.065,96.635,234.612z M101.209,233.226c0.273,0.367,0.424,0.802,0.436,1.258
			c0.031,1.215-0.932,2.23-2.148,2.261c-0.894,0.023-1.706-0.49-2.071-1.307c-0.118-0.266-0.182-0.549-0.19-0.841
			c-0.031-1.215,0.932-2.229,2.148-2.261C100.098,232.318,100.78,232.65,101.209,233.226z"/>
		<path style="fill:#EAAE57;" d="M260.789,177.688c0,0.286,0.27,0.518,0.603,0.518l21.642,0.034c-0.1-0.066-0.213-0.137-0.332-0.209
			c-0.202-0.124-0.423-0.254-0.642-0.385c-0.064-0.038-0.128-0.076-0.191-0.114c-0.209-0.126-0.408-0.249-0.575-0.362h-0.03h-19.872
			C261.058,177.17,260.789,177.402,260.789,177.688z"/>
		<path style="fill:#EAAE57;" d="M263.726,179.442c0,0.286,0.27,0.518,0.603,0.518l21.638,0.034
			c-0.486-0.321-1.247-0.738-1.736-1.07h-0.039h-19.862C263.996,178.924,263.726,179.156,263.726,179.442z"/>
		<path style="fill:#AF7631;" d="M132.335,183.961h-22.688C109.647,183.961,134.588,190.697,132.335,183.961z"/>
		<path style="fill:#604C66;" d="M132.335,183.961c0-2.834-2.297-5.131-5.131-5.131h-12.427c-2.834,0-5.131,2.297-5.131,5.131
			H132.335z"/>
		<path style="fill:#AF7631;" d="M211.038,183.017c-4.219,0-7.727-2.604-8.474-6.044c-3.113,1.529-4.01,4.024-3.46,6.337
			c0.684,2.872,3.636,4.923,7.037,5.145c13.879,0.906,22.245-2.813,26.492-5.479c-0.205,0.026-0.415,0.04-0.629,0.04H211.038z"/>
		<path style="fill:#AF7631;" d="M236.119,180.47c0,0-0.006-0.002-0.016-0.005c-0.001,0.003-0.003,0.007-0.004,0.01
			C236.106,180.472,236.114,180.47,236.119,180.47z"/>
	</g>
	<g>
		<path style="fill:#FFFFFF;" d="M308.74,114.525c-1.932,0.002-3.282,1.349-1.569,3.201
			C306.223,115.32,308.74,114.525,308.74,114.525z"/>
		<path style="fill:#FFFFFF;" d="M307.917,113.496c-2.674,0.003-4.542,1.866-2.171,4.43
			C304.435,114.596,307.917,113.496,307.917,113.496z"/>
		<path style="fill:#413756;" d="M357.523,141.012c-0.905-1.034-1.672-2.191-2.263-3.418c-1.368,5.998-1.571,9.291-1.571,9.291
			l2.758,0.426C356.549,145.788,356.954,143.559,357.523,141.012z"/>
		<path style="fill:#4C4060;" d="M361.052,127.538c-0.338-0.222-0.666-0.573-0.965-0.969c-0.742,0.568-1.509,1.137-2.301,1.707
			c-1.115,3.586-1.931,6.709-2.526,9.319c0.591,1.227,1.358,2.384,2.263,3.418C358.467,136.787,359.858,131.695,361.052,127.538z"/>
		<path style="fill:#EFA13A;" d="M391.439,132.12c-0.19,0.167-0.38,0.335-0.571,0.504c-0.041,3.175,0.274,5.694,1.154,6.916
			c0.41,0.569,0.861,1.234,1.335,2.008c0.18-0.087,0.361-0.173,0.538-0.26c2.645-1.293,5.642-3.013,8.304-5.163
			c1.842-1.488,3.523-3.182,4.815-5.083c0.17-0.251,0.292-0.522,0.367-0.802C402.647,132.953,396.486,133.63,391.439,132.12z"/>
		<path style="fill:#FFB345;" d="M407.476,128.992c-0.049-0.295-2.593-6.56-5.971-12.867c-2.429-4.535-5.289-9.091-7.964-11.469
			c-0.161,0.234-0.31,0.475-0.424,0.738c-0.038,0.087-0.073,0.175-0.107,0.262c0.78,1.499,1.085,3.266,0.73,5.078
			c-0.368,1.883-0.755,3.966-1.121,6.127c1.373,3.702,3.865,9.173,7.3,11.662c-3.039-0.197-4.129-0.121-4.129-0.121
			c-0.662,0.543-1.371,1.139-2.113,1.775c-0.721,0.617-1.472,1.271-2.236,1.943c5.047,1.51,11.207,0.833,15.941-1.88
			c0.109-0.404,0.122-0.826,0.041-1.233L407.476,128.992z"/>
		<path style="fill:#EFA13A;" d="M391.756,122.45l4.033,5.952c0,0,1.09-0.077,4.129,0.121c-3.435-2.489-5.927-7.96-7.3-11.662
			C392.308,118.691,392.013,120.578,391.756,122.45z"/>
		<path style="fill:#3B3249;" d="M317.641,120.687c-0.049-0.094-0.158-0.345-0.28-0.635c-2.563,1.02-5.702,0.461-7.524-1.758
			c0.069,0.558,0.392,1.045,0.814,1.458c0.781,0.521,1.502,0.997,1.926,1.092C313.097,120.96,315.711,120.815,317.641,120.687z"/>
		<path style="fill:#4A4059;" d="M317.361,120.052c-0.221-0.527-0.481-1.168-0.481-1.168s-0.452-0.053-1.152-0.409
			c0.019,0.1,0.025,0.201,0.001,0.302c-0.02,0.083-0.055,0.165-0.106,0.239l-0.723,1.046c-0.226,0.327-0.679,0.41-1.007,0.186
			l-0.106-0.072c-0.273-0.187-0.375-0.53-0.272-0.828c0.015-0.088,0.047-0.174,0.097-0.254c0.004-0.007,0.007-0.013,0.012-0.02
			l0.684-0.995c0.093-0.136,0.229-0.225,0.376-0.267c-0.18-0.138-0.366-0.293-0.558-0.468c-0.059-0.052-0.113-0.106-0.164-0.161
			c0.08,0.153,0.109,0.329,0.069,0.499c-0.02,0.083-0.055,0.165-0.106,0.239l-0.723,1.046c-0.225,0.327-0.679,0.41-1.007,0.186
			l-0.106-0.072c-0.273-0.187-0.374-0.53-0.272-0.828c0.015-0.088,0.047-0.174,0.097-0.254c0.004-0.007,0.008-0.013,0.012-0.02
			l0.684-0.996c0.213-0.311,0.642-0.39,0.953-0.177l0.019,0.013c0.016,0.009,0.033,0.016,0.049,0.027l0.106,0.072
			c0.019,0.013,0.031,0.031,0.048,0.045c-0.255-0.362-0.344-0.739-0.289-0.977c-1.103-0.279-2.607-0.369-3.371,1.01
			c-0.262,0.467-0.339,0.899-0.29,1.296C311.659,120.513,314.798,121.073,317.361,120.052z"/>
		<path style="fill:#D3A197;" d="M377.896,101.188c-0.034-1.688-0.677-3.362-1.252-4.944c-0.326,0.232-0.672,0.443-1.033,0.635
			c0.219,1.728,0.377,3.917,0.111,5.656c0.008,0.033,0.022,0.063,0.032,0.095c0.671-0.105,1.351-0.209,2.029-0.31
			C377.864,101.95,377.904,101.571,377.896,101.188z"/>
		<path style="fill:#9083B7;" d="M397.809,196.785l0.031-0.263C397.831,196.606,397.82,196.693,397.809,196.785z"/>
		<path style="fill:#9083B7;" d="M386.27,198.4c-0.482,0.047-0.961,0.088-1.44,0.127c-0.098,0.269-0.19,0.552-0.27,0.867
			c-0.698,2.758,0.871,4.417,1.58,5.004l2.178,36.775c0.918-7.215,2.397-14.368,4.756-21.407c1.255-3.475,3.55-6.8,6.713-8.836
			c-0.622-2.984-1.619-5.465-2.736-7.801l0.541-4.529c-0.03,0.249-0.061,0.512-0.095,0.794
			C393.474,201.6,388.467,199.535,386.27,198.4z M394.986,202.55c-0.574,0.074-1.125,0.217-1.632,0.45
			c-0.994,0.469-1.839,1.324-2.123,2.514c-0.117-0.609,0.065-1.275,0.416-1.811c0.351-0.541,0.86-0.983,1.453-1.255
			c0.588-0.272,1.235-0.382,1.861-0.369c0.627,0.012,1.242,0.143,1.805,0.389C396.152,202.468,395.56,202.476,394.986,202.55z"/>
		<path style="fill:#9083B7;" d="M397.787,196.973c-0.051,0.426-0.112,0.932-0.183,1.531L397.787,196.973z"/>
		<path style="fill:#8176AD;" d="M393.075,219.766c-2.36,7.038-3.839,14.192-4.756,21.407l0.177,2.986
			c-0.808,2.751-2.708,6.471-7.159,8.538c1.811,2.343,5.903,3.062,9.453,2.688c3.919-0.412,5.636-2.885,6.175-3.881
			c-0.56-1.881-1.767-6.308-1.532-8.798c5.256-15.837,5.753-25.077,4.356-31.776C396.625,212.966,394.329,216.291,393.075,219.766z"
			/>
		<path style="fill:#9083B7;" d="M352.542,196.719c-0.072,2.209,1.238,3.574,1.885,4.109l2.541,42.902c0,0,0.131,8.436-7.408,12.205
			c1.878,2.29,5.99,2.89,9.526,2.414c3.905-0.526,5.55-3.047,6.06-4.058c-0.662-2.01-2.163-6.959-1.721-9.3
			c9.637-27.566,6.646-37.613,2.398-46.24c-0.646,0-1.271,0.01-1.877,0.088c-0.616,0.084-1.213,0.227-1.755,0.483
			c-0.54,0.244-1.027,0.613-1.429,1.062c-0.398,0.455-0.705,0.999-0.856,1.643c-0.126-0.656,0.07-1.372,0.448-1.949
			c0.375-0.586,0.929-1.051,1.564-1.35c0.635-0.286,1.327-0.415,2.002-0.398c0.658,0.013,1.302,0.149,1.895,0.401
			c-0.035-0.072-0.071-0.143-0.106-0.215c0.012-0.017,0.024-0.034,0.037-0.051C359.826,197.99,355.127,197.211,352.542,196.719z
			 M361.058,249.935c-0.285,0.324-0.68,0.55-1.091,0.569c0.3-0.273,0.517-0.557,0.669-0.862c0.152-0.304,0.235-0.622,0.24-0.933
			c0.004-0.312-0.071-0.632-0.216-0.94c-0.144-0.31-0.355-0.598-0.648-0.878c0.409,0.03,0.798,0.267,1.076,0.597
			c0.277,0.332,0.447,0.773,0.441,1.229C361.524,249.173,361.343,249.61,361.058,249.935z"/>
		<path style="fill:#8176AD;" d="M386.27,198.4c2.197,1.135,7.204,3.2,11.228,0.994c0.034-0.281,0.065-0.545,0.095-0.794
			c0.004-0.033,0.008-0.065,0.012-0.097c0.071-0.599,0.132-1.104,0.183-1.531c0.008-0.065,0.015-0.127,0.022-0.188
			c0.011-0.092,0.021-0.179,0.031-0.263C393.978,197.433,390.081,198.033,386.27,198.4z"/>
		<path style="fill:#8176AD;" d="M360.012,246.891c0.293,0.28,0.504,0.568,0.648,0.878c0.144,0.307,0.22,0.628,0.216,0.94
			c-0.005,0.312-0.088,0.63-0.24,0.933c-0.151,0.306-0.369,0.589-0.669,0.862c0.41-0.019,0.806-0.246,1.091-0.569
			c0.285-0.325,0.466-0.762,0.471-1.218c0.006-0.456-0.164-0.897-0.441-1.229C360.811,247.158,360.422,246.921,360.012,246.891z"/>
		<path style="fill:#8176AD;" d="M363.919,198.332c-0.675-0.018-1.367,0.112-2.002,0.398c-0.635,0.299-1.189,0.764-1.564,1.35
			c-0.378,0.577-0.574,1.293-0.448,1.949c0.151-0.644,0.458-1.188,0.856-1.643c0.402-0.449,0.889-0.819,1.429-1.062
			c0.542-0.257,1.139-0.4,1.755-0.483c0.606-0.078,1.231-0.088,1.877-0.088c0.013,0,0.026,0,0.039,0
			c-0.015-0.007-0.032-0.011-0.047-0.018C365.221,198.481,364.577,198.345,363.919,198.332z"/>
		<path style="fill:#8176AD;" d="M394.961,202.079c-0.626-0.013-1.273,0.098-1.861,0.369c-0.594,0.272-1.103,0.713-1.453,1.255
			c-0.351,0.536-0.534,1.201-0.416,1.811c0.284-1.19,1.129-2.045,2.123-2.514c0.506-0.233,1.058-0.376,1.632-0.45
			c0.575-0.074,1.167-0.082,1.78-0.082C396.203,202.222,395.589,202.091,394.961,202.079z"/>
		<path style="fill:#4C3E60;" d="M359.086,258.349c-3.537,0.476-7.648-0.124-9.526-2.414c-0.054-0.066-0.112-0.127-0.162-0.195
			c-9.353,0.621-9.231,5.228-9.231,5.228c1.422,2.531,11.444,2.146,15.581,1.681c4.137-0.465,7.485-0.795,10.425-1.898
			c0.85-3.299-0.838-6.882-0.838-6.882s-0.057,0.162-0.189,0.422C364.636,255.302,362.991,257.823,359.086,258.349z"/>
		<path style="fill:#4C3E60;" d="M390.789,255.385c-3.549,0.374-7.641-0.345-9.453-2.688c-0.052-0.067-0.109-0.13-0.156-0.2
			c-9.367,0.35-9.378,4.959-9.378,4.959c1.348,2.571,11.377,2.476,15.526,2.132c4.149-0.345,7.505-0.578,10.476-1.596
			c0.945-3.273-0.639-6.903-0.639-6.903s-0.062,0.16-0.201,0.416C396.424,252.5,394.707,254.973,390.789,255.385z"/>
		<path style="fill:#FFB345;" d="M370.435,129.075c-0.983-1.911-2.62-3.546-4.065-5.24c-1.285,1.284-2.849,2.605-4.756,3.937
			c-0.052-0.008-0.104-0.022-0.156-0.038c0.474,0.346,0.977,0.653,1.503,0.902c1.042,0.493,2.171,0.755,3.322,0.643
			c1.008,7.16,4.756,15.35,4.079,18.655c-0.057,0.28-0.213,0.776-0.451,1.454l2.896,0.447
			C374.744,143.041,373.72,135.347,370.435,129.075z"/>
		<path style="fill:#FFC364;" d="M371.856,108.354c0.279,1.068,0.327,2.154,0.169,3.256c0.152,2.249-0.348,6.921-5.655,12.225
			c1.445,1.694,3.082,3.328,4.065,5.24c3.285,6.271,4.309,13.966,2.371,20.761l4.689,0.724c1.638-21.305-5.758-47.277-5.758-47.277
			l0.951-0.131c-0.003-0.008-0.006-0.018-0.009-0.026c-1.586,0.261-2.991,0.497-4.021,0.661
			C370.203,103.85,371.429,106.717,371.856,108.354z"/>
		<path style="fill:#FFC364;" d="M379.196,129.12c0.641,6.525,0.986,13.928,0.676,21.807l1.142,0.176
			C381.273,143.952,380.434,136.24,379.196,129.12z"/>
		<path style="fill:#FFC364;" d="M390.868,132.625c0.038-2.984,0.391-6.549,0.888-10.174c0.257-1.872,0.551-3.759,0.862-5.59
			c0.366-2.161,0.753-4.244,1.121-6.127c0.354-1.812,0.05-3.579-0.73-5.078c-0.374,0.953-0.571,1.879-1.479,2.531
			c-1.061,0.765-2.406,0.844-3.67,0.827c-0.079,0.767-0.161,1.534-0.239,2.302l-0.612,5.597l-0.615,5.596l-0.292,2.799
			c-0.088,0.939-0.198,1.855-0.203,2.796c-0.047,1.873-0.086,3.744,0.155,5.575c0.243,1.829,0.745,3.619,1.347,5.381
			c0.602,1.763,1.293,3.508,1.893,5.301c0.607,1.787,1.166,3.592,1.643,5.419c1.922,7.307,2.861,14.844,3.097,22.369
			c0.037,1.245,0.05,2.489,0.053,3.734c2.237,0.445,4.52,0.581,6.8,0.595c-0.094-19.569-4.34-29.724-7.529-34.929
			c-0.474-0.773-0.925-1.438-1.335-2.008C391.142,138.318,390.827,135.8,390.868,132.625z"/>
		<path style="fill:#FFC364;" d="M383.457,151.48l-3.68,17.157c3.03,2.358,6.376,4.351,9.958,5.907
			c1.152,0.502,2.327,0.878,3.516,1.159c-0.033-1.173-0.075-2.344-0.134-3.515c-0.19-3.736-0.53-7.462-1.035-11.162
			c-0.529-3.697-1.213-7.372-2.139-10.987c-0.466-1.807-0.973-3.603-1.55-5.378c-0.566-1.775-1.228-3.534-1.785-5.342
			c-0.559-1.804-1.045-3.658-1.218-5.564c-0.177-1.904-0.079-3.801,0.074-5.672l0.119-1.41l0.155-1.402l0.339-2.796l0.707-5.586
			l0.715-5.585c0.095-0.763,0.193-1.525,0.289-2.288c-0.003,0-0.005,0-0.008,0c-1.508-0.025-3.006,0.091-4.518,0.124
			c-1.428,0.031-2.813,0.014-4.121-0.637c-1.171-0.582-2.135-1.599-2.341-2.928c-0.154-0.992,0.342-1.58,0.718-2.421
			c0.12-0.269,0.205-0.548,0.267-0.832c-0.678,0.101-1.357,0.205-2.029,0.31c-0.138,0.022-0.276,0.044-0.413,0.065
			C376.021,104.599,383.234,125.394,383.457,151.48z"/>
		<path style="fill:#EFA13A;" d="M393.761,186.739c-0.022,0-0.044-0.002-0.066-0.002c-0.059,0.775-0.121,1.549-0.187,2.323
			c-0.159,1.872-0.346,3.741-0.575,5.605c0.138-2.648,0.246-5.296,0.314-7.943c-5.623-0.183-11.126-1.491-16.182-4.364
			c-4.633-2.656-8.132-6.507-10.525-10.993c-3.108,2.157-5.753,1.369-6.079,1.259c-4.667,11.022-10.121,23.641-10.121,23.641
			s0.784,0.184,2.201,0.454c2.585,0.492,7.284,1.271,13.202,1.749c5.538,0.447,12.143,0.627,19.086,0.06
			c0.479-0.039,0.958-0.081,1.44-0.127c3.812-0.367,7.708-0.967,11.571-1.878c0.65-0.153,1.299-0.314,1.947-0.485
			c0.357-3.288,0.619-6.397,0.798-9.336C398.312,186.826,396.021,186.808,393.761,186.739z"/>
		<path style="fill:#F2BDAF;" d="M376.503,95.855c-0.298-0.836-0.377-1.641-0.316-2.391c0.085-1.057,0.448-2.003,0.862-2.77
			c-0.008-0.008-0.013-0.013-0.013-0.013s0-0.007,0.001-0.02c3.253-0.924,4.034-3.921,3.149-4.796
			c-0.606-0.599-2.042,0.221-3.137,1.011c-0.126,0.091-0.247,0.181-0.362,0.269c-2.245-0.998-4.025-3.712-4.112-5.943
			c-0.047-0.02-0.093-0.04-0.139-0.059c-2.055,1.747-4.702,1.483-5.496,1.354c-0.031,0.006-0.062,0.014-0.094,0.02
			c0.062,1.083,0.37,2.48,0.934,3.016c0.203,0.193,0.353,0.443,0.424,0.684c0.199,0.674-0.89,2.54-2.22,3.987
			c-0.262,0.285-0.172,0.746,0.184,0.897c0.598,0.252,1.499,0.386,1.647,0.407c-0.081-0.054-0.152-0.121-0.202-0.204
			c0,0,1.085,0.355,1.125-0.77c0.484,1.036-0.401,1.291-0.9,0.987c-0.004,0.079-0.039,0.683-0.168,1.116
			c0.585,0.282,2.78,1.005,2.78,1.005c-0.607,0.859-1.909,1.253-1.909,1.253v-0.01c-0.005-0.002-0.01-0.005-0.015-0.007
			c0.081,0.129,0.162,0.276,0.241,0.453c0.126,0.282,0.169,0.952,0.378,2.421c0.065,0.459,0.482,0.785,0.943,0.731
			c1.801-0.208,3.824-0.698,5.524-1.605c0.361-0.192,0.707-0.404,1.033-0.635C376.597,96.114,376.549,95.984,376.503,95.855z
			 M377.645,87.255c0.243-0.209,0.507-0.397,0.802-0.529c0.291-0.132,0.61-0.227,0.931-0.208c-0.56,0.287-1.025,0.639-1.469,1.033
			c-0.223,0.195-0.43,0.408-0.643,0.622l-0.316,0.33c-0.106,0.111-0.208,0.227-0.329,0.334c0.045-0.152,0.105-0.299,0.168-0.445
			c0.075-0.138,0.144-0.283,0.235-0.413C377.198,87.714,377.409,87.472,377.645,87.255z M370.451,87.348
			c-0.262-0.085-0.476-0.166-0.666-0.232c0.056,0.147,0.093,0.324,0.099,0.515c0.018,0.526-0.192,0.96-0.469,0.969
			c-0.277,0.009-0.516-0.409-0.534-0.935c-0.009-0.253,0.036-0.484,0.115-0.657c-0.127,0.03-0.255,0.09-0.397,0.192
			c0,0,0.228-1.194,2.21-0.22c0.388,0.222,0.937-0.218,0.937-0.218S371.355,87.643,370.451,87.348z M371.558,85.188
			c-1.017-0.376-2.627,0.191-2.967,0.147c-0.34-0.044-0.471-0.789,0.337-0.905c2.745-0.261,3.966,1.034,4.32,1.914
			C373.248,86.344,372.575,85.563,371.558,85.188z"/>
		<path style="fill:#D3A197;" d="M366.94,82.497c0.794,0.129,3.441,0.393,5.496-1.354c-0.413-0.174-0.813-0.347-1.19-0.515
			C370.134,81.397,368.686,82.141,366.94,82.497z"/>
		<path style="fill:#D3A197;" d="M373.711,81.665c-0.39-0.155-0.77-0.309-1.136-0.462c0.087,2.232,1.867,4.945,4.112,5.943
			c0.115-0.088,0.236-0.178,0.362-0.269C375.307,85.57,374.293,83.494,373.711,81.665z"/>
		<path style="fill:#4A4059;" d="M371.246,80.629c-2.345-1.045-3.961-1.932-4.471-2.22c-0.498,1.263-0.641,2.693-0.445,4.197
			c0.175-0.025,0.347-0.056,0.517-0.089c0.031-0.006,0.062-0.013,0.094-0.02C368.686,82.141,370.134,81.397,371.246,80.629z"/>
		<path style="fill:#584263;" d="M368.928,84.43c-0.809,0.115-0.677,0.861-0.337,0.905c0.34,0.044,1.95-0.523,2.967-0.147
			c1.017,0.376,1.69,1.157,1.69,1.157C372.895,85.464,371.673,84.169,368.928,84.43z"/>
		<path style="fill:#584263;" d="M370.81,86.981c-1.982-0.974-2.21,0.22-2.21,0.22c0.142-0.102,0.27-0.162,0.397-0.192
			c-0.079,0.173-0.124,0.404-0.115,0.657c0.018,0.526,0.257,0.944,0.534,0.935c0.277-0.009,0.487-0.444,0.469-0.969
			c-0.007-0.191-0.043-0.367-0.099-0.515c0.19,0.065,0.404,0.147,0.666,0.232c0.904,0.294,1.296-0.585,1.296-0.585
			S371.198,87.203,370.81,86.981z"/>
		<path style="fill:#EDA13B;" d="M366.541,171.365c0.534-0.37,1.081-0.827,1.632-1.39l-6.698-1.277l-1.048,3.914
			c0,0,0.013,0.005,0.035,0.012C360.788,172.734,363.433,173.522,366.541,171.365z"/>
		<path style="fill:#FFB345;" d="M394.033,172.148c-0.237-7.526-1.175-15.062-3.097-22.369c-0.477-1.827-1.036-3.632-1.643-5.419
			c-0.6-1.793-1.291-3.538-1.893-5.301c-0.601-1.762-1.104-3.551-1.347-5.381c-0.241-1.831-0.202-3.702-0.155-5.575
			c0.004-0.941,0.115-1.858,0.203-2.796l0.292-2.799l0.615-5.596l0.612-5.597c0.078-0.767,0.16-1.534,0.239-2.302
			c-0.024,0-0.049,0-0.073,0c-0.096,0.763-0.194,1.525-0.289,2.288l-0.715,5.585l-0.707,5.586l-0.339,2.796l-0.155,1.402
			l-0.119,1.41c-0.153,1.872-0.251,3.768-0.074,5.672c0.173,1.906,0.66,3.76,1.218,5.564c0.557,1.808,1.219,3.567,1.785,5.342
			c0.577,1.775,1.084,3.571,1.55,5.378c0.926,3.616,1.61,7.29,2.139,10.987c0.505,3.701,0.845,7.426,1.035,11.162
			c0.059,1.171,0.101,2.343,0.134,3.515c-1.189-0.281-2.364-0.657-3.516-1.159c-3.582-1.556-6.928-3.549-9.958-5.907l-0.407,1.897
			c-0.181,0.842-1,1.386-1.846,1.224l-9.351-1.783c-0.552,0.563-1.099,1.02-1.632,1.39c2.393,4.486,5.892,8.337,10.525,10.993
			c5.056,2.873,10.559,4.181,16.182,4.364c-0.069,2.647-0.177,5.296-0.314,7.943c0.229-1.864,0.416-3.733,0.575-5.605
			c0.066-0.774,0.128-1.548,0.187-2.323c0.022,0,0.044,0.002,0.066,0.002c2.26,0.07,4.551,0.087,6.825-0.039
			c0.223-3.665,0.315-7.066,0.3-10.223c-2.28-0.014-4.563-0.15-6.8-0.595C394.083,174.638,394.07,173.393,394.033,172.148z"/>
		<path style="fill:#584A6D;" d="M373.711,81.665c0.581,1.829,1.596,3.905,3.338,5.213c1.095-0.79,2.531-1.609,3.137-1.011
			c1.344,1.046,0.471,4.431-1.384,4.904c-1.264,0.323-1.682-0.006-1.753-0.076c-0.415,0.766-0.777,1.712-0.862,2.77
			c0.015,0.03,0.031,0.06,0.05,0.089c2.013,2.605,6.157,4.381,4.736,8.17c1.539-0.237,2.723-1.539,2.605-2.96
			c-0.237-2.368-0.71-4.736,0-6.986c2.013,3.197,4.736,6.275,3.552,10.42c3.552-1.658,1.895-5.802,1.066-8.644
			c1.776,2.013,3.671,4.381,2.96,7.223c0.573-1.625,0.703-3.326,0.491-4.988c-0.01-0.011-0.019-0.022-0.028-0.034
			c-1.928-2.31-3.35-5.184-3.312-8.193c0.01-0.802,0.123-1.604,0.243-2.404C383.129,84.914,377.776,83.277,373.711,81.665z"/>
		<path style="fill:#4A4059;" d="M391.156,100.776c0.71-2.842-1.184-5.21-2.96-7.223c0.829,2.842,2.487,6.986-1.066,8.644
			c1.184-4.144-1.539-7.223-3.552-10.42c-0.71,2.25-0.237,4.618,0,6.986c0.118,1.421-1.066,2.723-2.605,2.96
			c1.421-3.789-2.723-5.565-4.736-8.17c-0.019-0.029-0.035-0.058-0.05-0.089c-0.06,0.75,0.018,1.555,0.316,2.391
			c0.046,0.128,0.094,0.259,0.141,0.389c0.575,1.583,1.219,3.256,1.252,4.944c0.008,0.383-0.032,0.762-0.113,1.132
			c-0.062,0.284-0.147,0.563-0.267,0.832c-0.376,0.841-0.871,1.429-0.718,2.421c0.206,1.328,1.17,2.345,2.341,2.928
			c1.308,0.651,2.693,0.669,4.121,0.637c1.512-0.033,3.01-0.149,4.518-0.124c0.003,0,0.005,0,0.008,0c0.024,0,0.049,0,0.073,0
			c1.264,0.017,2.609-0.063,3.67-0.827c0.909-0.652,1.105-1.578,1.479-2.531c0.034-0.087,0.069-0.174,0.107-0.262
			c0.114-0.263,0.263-0.504,0.424-0.738c0.385-0.559,0.847-1.07,1.123-1.696c0.558-1.264,0.22-2.769-0.468-3.967
			c-0.681-1.185-1.671-2.157-2.549-3.205C391.859,97.45,391.729,99.152,391.156,100.776z"/>
		<path style="fill:#DD553E;" d="M368.54,94.895c0,0,1.302-0.395,1.909-1.253c-0.858,0.355-2.649-0.059-2.649-0.059
			s-0.453,0.792,0.725,1.295c0.005,0.002,0.01,0.005,0.015,0.007V94.895z"/>
		<path style="fill:#FF6A48;" d="M370.45,93.642c0,0-2.195-0.723-2.78-1.005c-0.001,0-0.002-0.001-0.002-0.001
			c-0.548,0.429,0.133,0.947,0.133,0.947S369.591,93.997,370.45,93.642z"/>
		<path style="fill:#EDA13B;" d="M371.246,80.629c0.377,0.168,0.777,0.341,1.19,0.515c0.047,0.02,0.092,0.039,0.139,0.059
			c0.366,0.153,0.746,0.307,1.136,0.462c4.065,1.612,9.418,3.249,14.837,3.493c0.013,0.001,0.025,0.002,0.038,0.002
			c0.088-0.79,0.181-1.37,0.264-1.794c-0.014,0.009-0.023,0.014-0.023,0.014s-13.558-2.257-21.46-7.235l-0.771,2.161
			c0,0,0.065,0.038,0.178,0.102C367.285,78.697,368.901,79.584,371.246,80.629z"/>
		<path style="fill:#F4B558;" d="M388.827,83.38c0,0,0.009-0.005,0.023-0.014c0.406-0.246,6.324-3.922,2.814-7.277
			c-0.194,0.152-0.403,0.29-0.627,0.414c-7.227,4.13-17.011,3.703-23.751-1.066c0.018,0.228,0.044,0.464,0.081,0.709
			C375.269,81.124,388.827,83.38,388.827,83.38z"/>
		<path style="fill:#FFC364;" d="M391.038,76.503c0.225-0.124,0.433-0.262,0.627-0.414c-1.377-1.316-4.209-2.582-9.389-3.573
			c0.413-0.768,1.484-1.127,2.048-1.266c0.243-0.06,0.412-0.278,0.408-0.527c-0.003-0.169-0.024-0.382-0.087-0.634
			c-0.071-0.286-0.359-0.469-0.645-0.396c-1.65,0.42-2.323,1.602-2.599,2.485c-5.978-2.568-14.665-3.865-14.116,3.259
			C374.026,80.206,383.81,80.633,391.038,76.503z"/>
		<path style="fill:#3B3249;" d="M313.633,116.847c-0.016-0.011-0.033-0.017-0.049-0.027l0.081,0.056
			c0.24,0.165,0.341,0.458,0.277,0.726c-0.019,0.079-0.052,0.157-0.101,0.228l-0.684,0.995c-0.214,0.311-0.643,0.39-0.954,0.177
			l-0.1-0.069c-0.227-0.156-0.329-0.425-0.286-0.68c-0.103,0.298-0.002,0.641,0.272,0.828l0.106,0.072
			c0.328,0.224,0.782,0.141,1.007-0.186l0.723-1.046c0.051-0.075,0.086-0.156,0.106-0.239c0.041-0.17,0.011-0.345-0.069-0.499
			c-0.066-0.071-0.124-0.145-0.176-0.218c-0.017-0.014-0.029-0.032-0.048-0.045L313.633,116.847z"/>
		<path style="fill:#E26C59;" d="M313.943,117.601c0.064-0.268-0.038-0.561-0.277-0.726l-0.081-0.056l-0.019-0.013
			c-0.311-0.214-0.74-0.134-0.953,0.177l-0.684,0.996c-0.004,0.007-0.008,0.013-0.012,0.02
			C312.64,118.453,313.383,118.158,313.943,117.601z"/>
		<path style="fill:#CC5C50;" d="M312.104,118.933l0.1,0.069c0.311,0.214,0.74,0.134,0.954-0.177l0.684-0.995
			c0.049-0.071,0.082-0.148,0.101-0.228c-0.56,0.557-1.303,0.852-2.027,0.397c-0.051,0.079-0.082,0.166-0.097,0.254
			C311.776,118.508,311.878,118.777,312.104,118.933z"/>
		<path style="fill:#3B3249;" d="M315.64,118.697c-0.019,0.08-0.052,0.157-0.101,0.228l-0.684,0.996
			c-0.214,0.311-0.643,0.39-0.954,0.177l-0.1-0.069c-0.226-0.156-0.329-0.425-0.286-0.68c-0.103,0.298-0.002,0.641,0.272,0.828
			l0.106,0.072c0.328,0.224,0.782,0.141,1.007-0.186l0.723-1.046c0.052-0.075,0.086-0.156,0.106-0.239
			c0.024-0.1,0.018-0.202-0.001-0.302c-0.028-0.014-0.056-0.028-0.084-0.044C315.658,118.52,315.661,118.609,315.64,118.697z"/>
		<path style="fill:#E26C59;" d="M314.309,118.079l-0.684,0.995c-0.004,0.007-0.008,0.013-0.012,0.02
			c0.724,0.454,1.467,0.16,2.027-0.397c0.021-0.088,0.018-0.177,0.004-0.265c-0.286-0.152-0.609-0.352-0.959-0.619
			C314.538,117.854,314.402,117.943,314.309,118.079z"/>
		<path style="fill:#CC5C50;" d="M313.802,120.028l0.1,0.069c0.311,0.214,0.74,0.134,0.954-0.177l0.684-0.996
			c0.049-0.071,0.082-0.148,0.101-0.228c-0.56,0.557-1.303,0.852-2.027,0.397c-0.051,0.079-0.082,0.166-0.097,0.254
			C313.473,119.603,313.575,119.872,313.802,120.028z"/>
		<path style="fill:#F2BDAF;" d="M307.791,119.793l-1.126-0.888C306.845,119.049,307.265,119.382,307.791,119.793z"/>
		<path style="fill:#D3A197;" d="M308.966,119.625c-1.342-1.455-2.301-0.721-2.301-0.72l1.127,0.888l0.82,0.647
			c0,0,0.003-0.002,0.006-0.006C308.681,120.377,309.235,119.861,308.966,119.625z"/>
		<path style="fill:#D3A197;" d="M314.915,117.012c0.888,0.195,1.044-0.475,1.044-0.475l-0.002-0.001
			c-0.02-0.011-1.433-0.753-2.049-0.768C313.81,116.226,314.026,116.818,314.915,117.012z"/>
		<path style="fill:#F2BDAF;" d="M321.517,123.091c-0.002,0-0.004-0.001-0.005-0.001c0.763-0.559,1.419-1.226,1.91-1.998
			c-0.736-0.888-1.865-1.959-3.128-3.207c-0.55-0.32-0.874-0.41-1.32-0.524c-0.737-0.188-1.951-0.505-3.017-0.824l0.002,0.001
			c0,0-0.156,0.669-1.044,0.475c-0.888-0.194-1.104-0.786-1.007-1.244c-0.223-0.076-0.364,0.025-0.409,0.22
			c-0.055,0.238,0.034,0.614,0.289,0.977c0.052,0.074,0.11,0.147,0.176,0.218c0.051,0.055,0.105,0.109,0.164,0.161
			c0.192,0.175,0.378,0.33,0.558,0.468c0.349,0.267,0.673,0.468,0.959,0.619c0.029,0.015,0.056,0.029,0.084,0.044
			c0.699,0.356,1.152,0.409,1.152,0.409s0.259,0.642,0.481,1.168c0.122,0.289,0.231,0.54,0.28,0.635
			c-1.93,0.128-4.544,0.273-5.064,0.157c-0.425-0.095-1.145-0.571-1.926-1.092c-0.771-0.514-1.6-1.07-2.263-1.346
			c-1.335-0.556-1.818,0.423-1.818,0.423s0.034,0.027,0.095,0.076c0,0,0.959-0.735,2.301,0.72c0.269,0.236-0.285,0.752-0.348,0.809
			c0.964,0.741,2.031,1.539,2.631,1.911c0.139,0.086,0.334,0.179,0.568,0.275l0,0c0.54,0.131,1.057,0.282,1.582,0.395
			c0.526,0.115,1.046,0.198,1.601,0.168c-0.253,0.12-0.539,0.165-0.82,0.173c-0.283,0.009-0.562-0.033-0.836-0.088
			c-0.543-0.125-1.068-0.33-1.527-0.646c-0.052,0.362,0.03,0.801,0.645,1.244c-0.014,0.022-0.019,0.044-0.028,0.066
			c0.52,0.127,1.02,0.272,1.528,0.381c0.526,0.115,1.046,0.197,1.601,0.167c-0.253,0.12-0.539,0.165-0.82,0.173
			c-0.283,0.009-0.562-0.033-0.836-0.088c-0.525-0.121-1.032-0.319-1.479-0.617c-0.142,0.354,0.18,0.684,0.496,0.907
			C315.772,125.485,319.165,124.815,321.517,123.091z"/>
		<path style="fill:#E2ACA1;" d="M325.839,121.923c-0.483-0.024-0.91-0.042-1.268-0.055c-0.23-0.009-0.427-0.015-0.598-0.021
			c-0.143-0.235-0.329-0.486-0.552-0.755c-0.49,0.772-1.146,1.439-1.91,1.998c0.002,0,0.004,0.001,0.005,0.001
			c-2.352,1.724-5.745,2.394-8.594,1.762c0.249,0.175,0.492,0.285,0.492,0.285s-0.023,0.03-0.047,0.082
			c0.531,0.129,1.04,0.278,1.557,0.388c0.526,0.115,1.046,0.198,1.601,0.168c-0.253,0.12-0.539,0.165-0.82,0.173
			c-0.283,0.009-0.562-0.033-0.836-0.088c-0.535-0.123-1.051-0.325-1.505-0.633c-0.093,0.216-0.175,0.796,1.207,1.395
			c1.002,0.435,4.169,0.168,6.729-0.406c0.808,0.278,2.026,0.695,3.477,1.19C324.587,125.051,325.309,123.042,325.839,121.923z
			 M323.962,123.814c0.178-0.364,0.319-0.751,0.429-1.151C324.281,123.063,324.14,123.449,323.962,123.814z M324.439,122.483
			c0.045-0.18,0.085-0.362,0.119-0.545C324.523,122.121,324.484,122.303,324.439,122.483z"/>
		<path style="fill:#EFA13A;" d="M336.171,122.692l-9.818-1.715c0,0-0.229,0.345-0.514,0.947c-0.53,1.118-1.252,3.128-1.06,5.483
			c0.047,0.575,0.146,1.17,0.318,1.778c5.541,2.576,16.101,7.55,21.546,6.08C341.743,132.567,337.411,128.119,336.171,122.692z"/>
		<path style="fill:#DB9F8F;" d="M314.179,123.355c0.281-0.007,0.567-0.053,0.82-0.173c-0.555,0.03-1.075-0.053-1.601-0.168
			c-0.525-0.112-1.042-0.264-1.582-0.395c0,0-0.001,0-0.001,0c0,0,0.001,0,0.001,0.001c0.459,0.316,0.983,0.522,1.527,0.646
			C313.617,123.322,313.896,123.364,314.179,123.355z"/>
		<path style="fill:#DB9F8F;" d="M314.741,124.651c0.281-0.007,0.567-0.053,0.82-0.173c-0.555,0.03-1.074-0.052-1.601-0.167
			c-0.507-0.109-1.008-0.254-1.528-0.381c-0.019-0.005-0.037-0.01-0.055-0.014c0.016,0.011,0.033,0.019,0.049,0.03
			c0.448,0.299,0.954,0.497,1.479,0.617C314.18,124.618,314.459,124.661,314.741,124.651z"/>
		<path style="fill:#DB9F8F;" d="M315.706,125.949c0.281-0.007,0.567-0.053,0.82-0.173c-0.555,0.03-1.074-0.053-1.601-0.168
			c-0.517-0.111-1.026-0.259-1.557-0.388c-0.009-0.002-0.017-0.005-0.026-0.007c0.008,0.005,0.016,0.009,0.023,0.014
			c0.454,0.308,0.97,0.51,1.505,0.633C315.144,125.915,315.423,125.958,315.706,125.949z"/>
		<path style="fill:#EFA13A;" d="M361.614,127.773c1.907-1.333,3.471-2.653,4.756-3.937c5.307-5.304,5.807-9.976,5.655-12.225
			c-0.68,4.766-5.237,9.823-11.938,14.958c0.299,0.396,0.627,0.747,0.965,0.969c0.134,0.088,0.27,0.155,0.406,0.197
			C361.509,127.751,361.562,127.764,361.614,127.773z"/>
		<path style="fill:#FFB345;" d="M372.025,111.611c0.157-1.102,0.109-2.188-0.169-3.256c-0.427-1.637-1.653-4.505-3.197-4.568
			c-0.155-0.006-0.313,0.015-0.473,0.069c-3.55-0.29-19.437,14.605-25.109,20.044l-6.905-1.206
			c1.239,5.427,5.572,9.875,10.472,12.572c0.372-0.101,0.719-0.233,1.041-0.397c0.006,0.003,0.011,0.007,0.017,0.01
			c3.627-2.199,7.033-4.405,10.085-6.602c0.792-0.57,1.559-1.139,2.301-1.707C366.788,121.434,371.345,116.377,372.025,111.611z"/>
		<path style="fill:#4A4059;" d="M378.802,90.771c1.855-0.473,2.728-3.858,1.384-4.904c0.885,0.875,0.104,3.872-3.149,4.796
			c-0.001,0.013-0.001,0.02-0.001,0.02s0.005,0.005,0.013,0.013C377.121,90.765,377.538,91.094,378.802,90.771z"/>
		<path style="fill:#C98D7D;" d="M376.79,88.393c-0.064,0.146-0.123,0.292-0.168,0.445c0.121-0.107,0.223-0.223,0.329-0.334
			l0.316-0.33c0.212-0.215,0.42-0.427,0.643-0.622c0.443-0.394,0.908-0.746,1.469-1.033c-0.322-0.019-0.64,0.076-0.931,0.208
			c-0.294,0.132-0.559,0.32-0.802,0.529c-0.236,0.217-0.447,0.459-0.62,0.725C376.935,88.111,376.865,88.255,376.79,88.393z"/>
		<path style="fill:#D3A197;" d="M368.738,90.534c-0.04,1.125-1.125,0.77-1.125,0.77c0.05,0.083,0.121,0.15,0.202,0.204
			c0.007,0.005,0.015,0.009,0.023,0.014C368.337,91.826,369.222,91.57,368.738,90.534z"/>
		<path style="fill:#FFB345;" d="M379.196,129.12c-2.248-12.92-5.808-23.88-6.507-25.969l-0.951,0.131
			c0,0,7.396,25.972,5.758,47.277l2.376,0.367C380.182,143.048,379.836,135.645,379.196,129.12z"/>
		<path style="fill:#4C4060;" d="M379.196,129.12c1.238,7.12,2.077,14.832,1.818,21.983l2.443,0.377
			c-0.223-26.086-7.436-46.88-8.116-48.785c-0.034-0.094-0.051-0.143-0.051-0.143l-2.724,0.237c0,0,0.04,0.117,0.114,0.336
			c0.003,0.008,0.006,0.018,0.009,0.026C373.388,105.24,376.948,116.2,379.196,129.12z"/>
		<path style="fill:#4C4060;" d="M368.173,169.975l9.351,1.783c0.846,0.161,1.665-0.382,1.846-1.224l0.407-1.897l3.68-17.157
			c-3.279,10.722-13.83,10.327-17.64,9.407c-13.742-3.32-12.206-13.537-12.132-13.985l-3.059,18.149
			c-0.143,0.85,0.419,1.658,1.266,1.82l9.582,1.827L368.173,169.975z"/>
		<path style="fill:#413756;" d="M365.817,160.887c3.809,0.92,14.361,1.315,17.64-9.407c0,0-3.842,9.695-16.096,8.109
			c-12.085-1.565-13.673-12.703-13.673-12.703s-0.001,0.007-0.003,0.017C353.612,147.35,352.075,157.567,365.817,160.887z"/>
		<path style="fill:#544772;" d="M367.361,159.588c12.254,1.587,16.096-8.109,16.096-8.109l-2.443-0.377l-1.142-0.176l-2.376-0.367
			l-4.689-0.724l-2.896-0.447l-13.464-2.078l-2.758-0.426C353.689,146.885,355.276,158.023,367.361,159.588z M367.845,158.353
			c-0.1,0.357-0.47,0.565-0.827,0.465c-0.357-0.1-0.565-0.47-0.465-0.827c0.1-0.357,0.47-0.565,0.827-0.465
			C367.737,157.626,367.945,157.997,367.845,158.353z"/>
		<path style="fill:#8975AF;" d="M367.38,157.526c-0.357-0.1-0.727,0.108-0.827,0.465c-0.1,0.357,0.108,0.727,0.465,0.827
			c0.357,0.1,0.727-0.108,0.827-0.465C367.945,157.997,367.737,157.626,367.38,157.526z"/>
	</g>
</g>
</svg>
